<svg width="473" height="654" viewBox="0 0 473 654" fill="none" xmlns="http://www.w3.org/2000/svg">
<path fill-rule="evenodd" clip-rule="evenodd" d="M48.0104 934.205L136.815 989.072C160.137 946.406 174.938 906.117 185.091 858.552C185.241 857.845 185.39 857.138 185.534 856.431C213.723 851.439 242.705 841.002 270.288 822.167C327.159 783.334 370.943 714.989 393.273 656.132C414.537 600.082 423.49 541.535 425.768 486.649C469.686 459.556 517.674 429.387 549.161 389.303C575.832 355.351 590.667 317.663 600.88 283.004C616.144 231.205 622.543 179.366 621.031 129.238C656.478 109.902 687.388 81.2971 711.057 51.6374C733.305 23.7581 767.322 -28.8036 794.016 -74.8097L705.336 -129.6C681.033 -87.5371 648.822 -37.4423 629.607 -13.3642C621.302 -2.95838 612.392 6.45955 603.244 14.6473C585.831 -46.85 557.761 -100.412 526.139 -148.403C508.83 -174.672 487.567 -201.42 458.673 -222.816L457.587 -223.623C443.472 -234.107 409.864 -259.072 365.115 -250.527C331.57 -244.121 308.2 -222.013 293.681 -202.302C278.795 -182.092 268.834 -158.715 263.206 -138.123C246.859 -78.3127 259.13 -17.7604 276.354 25.277C298.413 80.396 342.261 126.078 400.521 144.438C434.07 155.011 470.126 156.073 497.37 156.573C503.649 156.689 510.145 156.659 516.818 156.411C515.73 188.096 510.6 220.702 500.921 253.549C492.515 282.075 482.362 305.646 467.213 324.929C455.184 340.242 439.816 351.959 420.155 365.373C411.591 310.094 392.959 258.686 357.604 213.206C330.844 178.784 295.607 138.009 248.76 112.637C209.697 91.4814 148.911 91.5574 107.11 135.719C63.3599 181.939 52.0879 239.181 57.4129 289.311C62.6115 338.247 83.8201 384.413 111.354 415.526C147.518 456.388 199.02 495.395 258.027 511.256C276.997 516.355 297.398 519.625 318.824 519.884C315.055 553.902 307.836 587.551 295.84 619.168C278.373 665.209 245.399 712.976 211.523 736.108C204.119 741.164 196.314 745.137 188.198 748.161C186.072 731.63 183.049 715.599 179.602 700.241C173.751 674.177 166.154 648.634 158.555 623.086C153.424 605.837 148.293 588.587 143.699 571.171C131.42 524.631 110.453 484.256 74.4145 451.051C52.2318 430.612 11.2983 397.475 -42.7068 400.048C-85.6057 402.092 -133.342 423.058 -165.638 462.327C-175.092 473.821 -194.162 497.012 -201.848 524.698C-211.985 561.215 -204.535 598.134 -197.948 620.443C-177.589 689.391 -122.544 739.383 -87.2971 771.126C-39.6285 814.057 16.4603 841.391 79.2102 853.787C72.0528 881.839 62.4193 907.038 48.0104 934.205ZM82.7961 747.736C81.4407 739.658 79.8031 731.438 77.9233 723.066C72.2745 697.902 64.8952 673.214 57.5155 648.524C52.4728 631.653 47.4298 614.781 42.9385 597.755C34.5776 566.065 22.2223 544.66 3.80239 527.689C-16.0865 509.364 -29.1723 503.73 -37.7469 504.138C-52.9441 504.863 -72.6036 513.261 -85.1537 528.521C-96.0593 541.78 -100.473 549.103 -101.436 552.57C-102.432 556.158 -102.976 561.604 -102.342 568.99C-101.719 576.245 -100.092 583.864 -98.0042 590.933C-87.164 627.648 -55.5383 659.488 -17.5592 693.692C11.35 719.728 44.6458 737.68 82.7961 747.736ZM505.509 52.4264C492.13 0.210046 468.474 -46.5211 439.122 -91.0661C425.262 -112.101 411.881 -127.796 396.657 -139.071C393.154 -141.665 390.481 -143.571 388.047 -145.126C386.298 -146.244 384.979 -146.978 384.01 -147.457C382.701 -146.463 380.488 -144.44 377.584 -140.497C371.749 -132.577 366.685 -121.469 363.728 -110.649C355.338 -79.9546 361.019 -43.6348 373.102 -13.4426C385.176 16.7245 407.316 37.3189 431.842 45.048C449.224 50.5258 471.111 51.865 499.285 52.3826C501.382 52.4213 503.456 52.4361 505.509 52.4264ZM320.901 415.69C316.968 356.902 302.953 312.696 275.331 277.164C249.944 244.508 225.77 218.696 199.132 204.27C198.101 203.711 194.99 202.725 191.158 203.177C187.975 203.551 185.236 204.773 182.791 207.356C164.374 226.812 158.193 251.515 161.039 278.302C164.011 306.283 176.598 332.007 189.392 346.464C216.391 376.972 251.322 401.546 285.078 410.62C297.045 413.836 309.017 415.625 320.901 415.69Z" fill="url(#paint0_linear_463_3032)"/>
<defs>
<linearGradient id="paint0_linear_463_3032" x1="325.212" y1="71.76" x2="210.582" y2="639.814" gradientUnits="userSpaceOnUse">
<stop stop-color="#E0E0EB"/>
<stop offset="1" stop-color="#E3E3ED" stop-opacity="0.44"/>
</linearGradient>
</defs>
</svg>
