<svg width="32" height="32" viewBox="0 0 32 32" fill="none" xmlns="http://www.w3.org/2000/svg">
<rect width="32" height="32" rx="16" fill="#E1E3F1"/>
<path d="M16.0303 20.3742C14.5654 20.3742 13.1005 20.3742 11.6356 20.3742C11.564 20.3742 11.4916 20.3742 11.4197 20.3669C11.0529 20.3329 10.9055 20.0875 11.0619 19.7558C11.1976 19.4694 11.3457 19.1904 11.4894 18.9071C12.168 17.5731 12.8465 16.2393 13.5251 14.9057C13.5461 14.865 13.568 14.8242 13.5923 14.7853C13.7632 14.5134 14.0408 14.4751 14.2595 14.7097C14.4137 14.8739 14.5442 15.0582 14.6818 15.2362C15.3809 16.1434 16.08 17.0511 16.7791 17.9591C17.0845 18.3542 17.4691 18.3757 17.8278 18.0204C18.0058 17.8439 18.1798 17.6629 18.3599 17.488C18.6847 17.1726 19.0533 17.1916 19.3185 17.5594C19.8509 18.2976 20.37 19.0455 20.8916 19.791C20.9323 19.8495 20.9636 19.914 20.9841 19.9822C21.0347 20.1534 20.9631 20.2912 20.7883 20.3368C20.6786 20.3629 20.566 20.375 20.4533 20.3727C18.9798 20.3751 17.5054 20.3756 16.0303 20.3742Z" fill="#8387A3"/>
<path d="M19.3154 13.0646C19.3151 13.3493 19.2296 13.6275 19.0698 13.864C18.91 14.1004 18.6831 14.2844 18.4179 14.3926C18.1527 14.5008 17.8611 14.5284 17.58 14.4718C17.299 14.4152 17.0413 14.2771 16.8394 14.0749C16.6375 13.8727 16.5007 13.6155 16.4462 13.3359C16.3917 13.0564 16.422 12.7671 16.5333 12.5047C16.6446 12.2423 16.8319 12.0186 17.0713 11.862C17.3108 11.7054 17.5917 11.6229 17.8784 11.625C18.2602 11.6299 18.6248 11.7835 18.8936 12.0528C19.1625 12.322 19.3139 12.6854 19.3154 13.0646Z" fill="#8387A3"/>
</svg>
