<svg width="352" height="223" viewBox="0 0 352 223" fill="none" xmlns="http://www.w3.org/2000/svg">
<path d="M79.1257 80.7273C79.1257 85.803 78.1636 90.1212 76.2393 93.6818C74.3302 97.2424 71.7242 99.9621 68.4211 101.841C65.1333 103.705 61.4363 104.636 57.3302 104.636C53.1939 104.636 49.4817 103.697 46.1939 101.818C42.906 99.9394 40.3075 97.2197 38.3984 93.6591C36.4893 90.0985 35.5348 85.7879 35.5348 80.7273C35.5348 75.6515 36.4893 71.3333 38.3984 67.7727C40.3075 64.2121 42.906 61.5 46.1939 59.6364C49.4817 57.7576 53.1939 56.8182 57.3302 56.8182C61.4363 56.8182 65.1333 57.7576 68.4211 59.6364C71.7242 61.5 74.3302 64.2121 76.2393 67.7727C78.1636 71.3333 79.1257 75.6515 79.1257 80.7273ZM69.1484 80.7273C69.1484 77.4394 68.656 74.6667 67.6711 72.4091C66.7014 70.1515 65.3302 68.4394 63.5575 67.2727C61.7848 66.1061 59.709 65.5227 57.3302 65.5227C54.9514 65.5227 52.8757 66.1061 51.103 67.2727C49.3302 68.4394 47.9514 70.1515 46.9666 72.4091C45.9969 74.6667 45.512 77.4394 45.512 80.7273C45.512 84.0152 45.9969 86.7879 46.9666 89.0455C47.9514 91.303 49.3302 93.0152 51.103 94.1818C52.8757 95.3485 54.9514 95.9318 57.3302 95.9318C59.709 95.9318 61.7848 95.3485 63.5575 94.1818C65.3302 93.0152 66.7014 91.303 67.6711 89.0455C68.656 86.7879 69.1484 84.0152 69.1484 80.7273ZM100.726 104.682C97.1506 104.682 94.0748 103.924 91.4991 102.409C88.9385 100.879 86.9688 98.7576 85.59 96.0455C84.2264 93.3333 83.5445 90.2121 83.5445 86.6818C83.5445 83.1061 84.2339 79.9697 85.6127 77.2727C87.0067 74.5606 88.9839 72.447 91.5445 70.9318C94.1051 69.4015 97.1506 68.6364 100.681 68.6364C103.726 68.6364 106.393 69.1894 108.681 70.2955C110.969 71.4015 112.779 72.9545 114.113 74.9545C115.446 76.9545 116.181 79.303 116.317 82H107.181C106.923 80.2576 106.242 78.8561 105.135 77.7955C104.045 76.7197 102.613 76.1818 100.84 76.1818C99.34 76.1818 98.0294 76.5909 96.9082 77.4091C95.8021 78.2121 94.9385 79.3864 94.3173 80.9318C93.6961 82.4773 93.3855 84.3485 93.3855 86.5455C93.3855 88.7727 93.6885 90.6667 94.2945 92.2273C94.9158 93.7879 95.787 94.9773 96.9082 95.7955C98.0294 96.6136 99.34 97.0227 100.84 97.0227C101.946 97.0227 102.938 96.7955 103.817 96.3409C104.711 95.8864 105.446 95.2273 106.022 94.3636C106.613 93.4848 106.999 92.4318 107.181 91.2045H116.317C116.166 93.8712 115.438 96.2197 114.135 98.25C112.848 100.265 111.067 101.841 108.795 102.977C106.522 104.114 103.832 104.682 100.726 104.682ZM118.855 76.7045V69.0909H150.492V76.7045H139.242V104H130.015V76.7045H118.855ZM163.786 104.659C161.558 104.659 159.574 104.273 157.831 103.5C156.089 102.712 154.71 101.553 153.695 100.023C152.695 98.4773 152.195 96.553 152.195 94.25C152.195 92.3106 152.551 90.6818 153.263 89.3636C153.975 88.0455 154.945 86.9848 156.172 86.1818C157.399 85.3788 158.793 84.7727 160.354 84.3636C161.93 83.9545 163.581 83.6667 165.308 83.5C167.339 83.2879 168.975 83.0909 170.217 82.9091C171.46 82.7121 172.361 82.4242 172.922 82.0455C173.483 81.6667 173.763 81.1061 173.763 80.3636V80.2273C173.763 78.7879 173.308 77.6742 172.399 76.8864C171.505 76.0985 170.233 75.7045 168.581 75.7045C166.839 75.7045 165.452 76.0909 164.422 76.8636C163.392 77.6212 162.71 78.5758 162.377 79.7273L153.422 79C153.877 76.8788 154.771 75.0455 156.104 73.5C157.437 71.9394 159.157 70.7424 161.263 69.9091C163.384 69.0606 165.839 68.6364 168.627 68.6364C170.566 68.6364 172.422 68.8636 174.195 69.3182C175.983 69.7727 177.566 70.4773 178.945 71.4318C180.339 72.3864 181.437 73.6136 182.24 75.1136C183.043 76.5985 183.445 78.3788 183.445 80.4545V104H174.263V99.1591H173.99C173.43 100.25 172.68 101.212 171.74 102.045C170.801 102.864 169.672 103.508 168.354 103.977C167.036 104.432 165.513 104.659 163.786 104.659ZM166.558 97.9773C167.983 97.9773 169.24 97.697 170.331 97.1364C171.422 96.5606 172.278 95.7879 172.899 94.8182C173.521 93.8485 173.831 92.75 173.831 91.5227V87.8182C173.528 88.0152 173.111 88.197 172.581 88.3636C172.066 88.5152 171.483 88.6591 170.831 88.7955C170.18 88.9167 169.528 89.0303 168.877 89.1364C168.225 89.2273 167.634 89.3106 167.104 89.3864C165.967 89.553 164.975 89.8182 164.127 90.1818C163.278 90.5455 162.619 91.0379 162.149 91.6591C161.68 92.2652 161.445 93.0227 161.445 93.9318C161.445 95.25 161.922 96.2576 162.877 96.9545C163.846 97.6364 165.074 97.9773 166.558 97.9773ZM187.631 104L187.585 96.3182H188.744C189.563 96.3182 190.267 96.1212 190.858 95.7273C191.464 95.3182 191.964 94.6591 192.358 93.75C192.752 92.8409 193.063 91.6364 193.29 90.1364C193.517 88.6212 193.669 86.7576 193.744 84.5455L194.312 69.0909H220.858V104H211.631V76.7045H203.017L202.472 87.3636C202.335 90.2879 201.979 92.803 201.403 94.9091C200.843 97.0152 200.062 98.7424 199.062 100.091C198.062 101.424 196.858 102.409 195.449 103.045C194.04 103.682 192.403 104 190.54 104H187.631ZM236.334 91.2273L248.902 69.0909H258.447V104H249.22V81.7955L236.697 104H227.084V69.0909H236.334V91.2273ZM280.701 104.682C277.126 104.682 274.05 103.924 271.474 102.409C268.913 100.879 266.944 98.7576 265.565 96.0455C264.201 93.3333 263.52 90.2121 263.52 86.6818C263.52 83.1061 264.209 79.9697 265.588 77.2727C266.982 74.5606 268.959 72.447 271.52 70.9318C274.08 69.4015 277.126 68.6364 280.656 68.6364C283.701 68.6364 286.368 69.1894 288.656 70.2955C290.944 71.4015 292.754 72.9545 294.088 74.9545C295.421 76.9545 296.156 79.303 296.292 82H287.156C286.898 80.2576 286.217 78.8561 285.11 77.7955C284.02 76.7197 282.588 76.1818 280.815 76.1818C279.315 76.1818 278.004 76.5909 276.883 77.4091C275.777 78.2121 274.913 79.3864 274.292 80.9318C273.671 82.4773 273.36 84.3485 273.36 86.5455C273.36 88.7727 273.663 90.6667 274.27 92.2273C274.891 93.7879 275.762 94.9773 276.883 95.7955C278.004 96.6136 279.315 97.0227 280.815 97.0227C281.921 97.0227 282.913 96.7955 283.792 96.3409C284.686 95.8864 285.421 95.2273 285.997 94.3636C286.588 93.4848 286.974 92.4318 287.156 91.2045H296.292C296.141 93.8712 295.413 96.2197 294.11 98.25C292.823 100.265 291.042 101.841 288.77 102.977C286.497 104.114 283.807 104.682 280.701 104.682ZM307.279 79.8182H317.711C322.332 79.8182 325.938 80.9242 328.529 83.1364C331.12 85.3333 332.416 88.2727 332.416 91.9545C332.416 94.3485 331.832 96.4545 330.666 98.2727C329.499 100.076 327.817 101.485 325.62 102.5C323.423 103.5 320.787 104 317.711 104H301.211V69.0909H310.461V96.3864H317.711C319.332 96.3864 320.666 95.9773 321.711 95.1591C322.757 94.3409 323.287 93.2955 323.302 92.0227C323.287 90.6742 322.757 89.5758 321.711 88.7273C320.666 87.8636 319.332 87.4318 317.711 87.4318H307.279V79.8182ZM31.3124 174V139.091H46.1987C50.5018 139.091 53.9033 139.909 56.4033 141.545C58.9033 143.182 60.1533 145.508 60.1533 148.523C60.1533 150.417 59.4487 151.992 58.0397 153.25C56.6306 154.508 54.676 155.356 52.176 155.795C54.2669 155.947 56.0472 156.424 57.5169 157.227C59.0018 158.015 60.1306 159.038 60.9033 160.295C61.6912 161.553 62.0851 162.947 62.0851 164.477C62.0851 166.462 61.5548 168.167 60.4942 169.591C59.4487 171.015 57.9109 172.106 55.8806 172.864C53.8654 173.621 51.4033 174 48.4942 174H31.3124ZM40.3351 166.75H48.4942C49.8427 166.75 50.8957 166.432 51.6533 165.795C52.426 165.144 52.8124 164.258 52.8124 163.136C52.8124 161.894 52.426 160.917 51.6533 160.205C50.8957 159.492 49.8427 159.136 48.4942 159.136H40.3351V166.75ZM40.3351 153.455H46.4033C47.373 153.455 48.1987 153.318 48.8806 153.045C49.5775 152.758 50.1078 152.348 50.4715 151.818C50.8503 151.288 51.0397 150.659 51.0397 149.932C51.0397 148.856 50.6078 148.015 49.7442 147.409C48.8806 146.803 47.6987 146.5 46.1987 146.5H40.3351V153.455ZM82.6801 174.682C79.1498 174.682 76.0968 173.932 73.521 172.432C70.9604 170.917 68.9831 168.811 67.5892 166.114C66.1953 163.402 65.4983 160.258 65.4983 156.682C65.4983 153.076 66.1953 149.924 67.5892 147.227C68.9831 144.515 70.9604 142.409 73.521 140.909C76.0968 139.394 79.1498 138.636 82.6801 138.636C86.2104 138.636 89.2559 139.394 91.8165 140.909C94.3922 142.409 96.3771 144.515 97.771 147.227C99.165 149.924 99.8619 153.076 99.8619 156.682C99.8619 160.258 99.165 163.402 97.771 166.114C96.3771 168.811 94.3922 170.917 91.8165 172.432C89.2559 173.932 86.2104 174.682 82.6801 174.682ZM82.7256 167.182C84.3316 167.182 85.6725 166.727 86.7483 165.818C87.8241 164.894 88.6347 163.636 89.1801 162.045C89.7407 160.455 90.021 158.644 90.021 156.614C90.021 154.583 89.7407 152.773 89.1801 151.182C88.6347 149.591 87.8241 148.333 86.7483 147.409C85.6725 146.485 84.3316 146.023 82.7256 146.023C81.1044 146.023 79.7407 146.485 78.6347 147.409C77.5437 148.333 76.718 149.591 76.1574 151.182C75.6119 152.773 75.3392 154.583 75.3392 156.614C75.3392 158.644 75.6119 160.455 76.1574 162.045C76.718 163.636 77.5437 164.894 78.6347 165.818C79.7407 166.727 81.1044 167.182 82.7256 167.182ZM104.877 174V139.091H135.4V174H126.15V146.705H114.014V174H104.877ZM141.847 187.091V139.091H151.393V144.955H151.825C152.249 144.015 152.863 143.061 153.666 142.091C154.484 141.106 155.544 140.288 156.847 139.636C158.166 138.97 159.802 138.636 161.756 138.636C164.302 138.636 166.65 139.303 168.802 140.636C170.953 141.955 172.673 143.947 173.961 146.614C175.249 149.265 175.893 152.591 175.893 156.591C175.893 160.485 175.264 163.773 174.006 166.455C172.764 169.121 171.067 171.144 168.916 172.523C166.779 173.886 164.385 174.568 161.734 174.568C159.855 174.568 158.256 174.258 156.938 173.636C155.635 173.015 154.567 172.235 153.734 171.295C152.9 170.341 152.264 169.379 151.825 168.409H151.529V187.091H141.847ZM151.325 156.545C151.325 158.621 151.613 160.432 152.188 161.977C152.764 163.523 153.597 164.727 154.688 165.591C155.779 166.439 157.105 166.864 158.666 166.864C160.241 166.864 161.575 166.432 162.666 165.568C163.756 164.689 164.582 163.477 165.143 161.932C165.719 160.371 166.006 158.576 166.006 156.545C166.006 154.53 165.726 152.758 165.166 151.227C164.605 149.697 163.779 148.5 162.688 147.636C161.597 146.773 160.256 146.341 158.666 146.341C157.09 146.341 155.756 146.758 154.666 147.591C153.59 148.424 152.764 149.606 152.188 151.136C151.613 152.667 151.325 154.47 151.325 156.545ZM196.84 174.682C193.31 174.682 190.257 173.932 187.681 172.432C185.12 170.917 183.143 168.811 181.749 166.114C180.355 163.402 179.658 160.258 179.658 156.682C179.658 153.076 180.355 149.924 181.749 147.227C183.143 144.515 185.12 142.409 187.681 140.909C190.257 139.394 193.31 138.636 196.84 138.636C200.37 138.636 203.416 139.394 205.976 140.909C208.552 142.409 210.537 144.515 211.931 147.227C213.325 149.924 214.022 153.076 214.022 156.682C214.022 160.258 213.325 163.402 211.931 166.114C210.537 168.811 208.552 170.917 205.976 172.432C203.416 173.932 200.37 174.682 196.84 174.682ZM196.886 167.182C198.492 167.182 199.833 166.727 200.908 165.818C201.984 164.894 202.795 163.636 203.34 162.045C203.901 160.455 204.181 158.644 204.181 156.614C204.181 154.583 203.901 152.773 203.34 151.182C202.795 149.591 201.984 148.333 200.908 147.409C199.833 146.485 198.492 146.023 196.886 146.023C195.264 146.023 193.901 146.485 192.795 147.409C191.704 148.333 190.878 149.591 190.317 151.182C189.772 152.773 189.499 154.583 189.499 156.614C189.499 158.644 189.772 160.455 190.317 162.045C190.878 163.636 191.704 164.894 192.795 165.818C193.901 166.727 195.264 167.182 196.886 167.182ZM234.81 174.682C231.234 174.682 228.159 173.924 225.583 172.409C223.022 170.879 221.053 168.758 219.674 166.045C218.31 163.333 217.628 160.212 217.628 156.682C217.628 153.106 218.318 149.97 219.696 147.273C221.09 144.561 223.068 142.447 225.628 140.932C228.189 139.402 231.234 138.636 234.765 138.636C237.81 138.636 240.477 139.189 242.765 140.295C245.053 141.402 246.863 142.955 248.196 144.955C249.53 146.955 250.265 149.303 250.401 152H241.265C241.007 150.258 240.325 148.856 239.219 147.795C238.128 146.72 236.696 146.182 234.924 146.182C233.424 146.182 232.113 146.591 230.992 147.409C229.886 148.212 229.022 149.386 228.401 150.932C227.78 152.477 227.469 154.348 227.469 156.545C227.469 158.773 227.772 160.667 228.378 162.227C229 163.788 229.871 164.977 230.992 165.795C232.113 166.614 233.424 167.023 234.924 167.023C236.03 167.023 237.022 166.795 237.901 166.341C238.795 165.886 239.53 165.227 240.106 164.364C240.696 163.485 241.083 162.432 241.265 161.205H250.401C250.25 163.871 249.522 166.22 248.219 168.25C246.931 170.265 245.151 171.841 242.878 172.977C240.606 174.114 237.916 174.682 234.81 174.682ZM261.388 149.818H271.82C276.441 149.818 280.047 150.924 282.638 153.136C285.229 155.333 286.524 158.273 286.524 161.955C286.524 164.348 285.941 166.455 284.774 168.273C283.608 170.076 281.926 171.485 279.729 172.5C277.532 173.5 274.896 174 271.82 174H255.32V139.091H264.57V166.386H271.82C273.441 166.386 274.774 165.977 275.82 165.159C276.865 164.341 277.396 163.295 277.411 162.023C277.396 160.674 276.865 159.576 275.82 158.727C274.774 157.864 273.441 157.432 271.82 157.432H261.388V149.818ZM290.274 174V139.091H299.956V174H290.274ZM314.733 160.045V159.273C314.748 156.621 314.983 154.508 315.438 152.932C315.907 151.356 316.589 150.083 317.483 149.114C318.377 148.144 319.453 147.265 320.71 146.477C321.65 145.871 322.491 145.242 323.233 144.591C323.976 143.939 324.566 143.22 325.006 142.432C325.445 141.629 325.665 140.735 325.665 139.75C325.665 138.705 325.415 137.788 324.915 137C324.415 136.212 323.741 135.606 322.892 135.182C322.059 134.758 321.135 134.545 320.119 134.545C319.135 134.545 318.203 134.765 317.324 135.205C316.445 135.629 315.726 136.265 315.165 137.114C314.604 137.947 314.301 138.985 314.256 140.227H304.983C305.059 137.197 305.786 134.697 307.165 132.727C308.544 130.742 310.369 129.265 312.642 128.295C314.915 127.311 317.422 126.818 320.165 126.818C323.18 126.818 325.847 127.318 328.165 128.318C330.483 129.303 332.301 130.735 333.619 132.614C334.938 134.492 335.597 136.758 335.597 139.409C335.597 141.182 335.301 142.758 334.71 144.136C334.135 145.5 333.324 146.712 332.279 147.773C331.233 148.818 329.998 149.765 328.574 150.614C327.377 151.326 326.392 152.068 325.619 152.841C324.862 153.614 324.294 154.508 323.915 155.523C323.551 156.538 323.362 157.788 323.347 159.273V160.045H314.733ZM319.233 174.591C317.718 174.591 316.422 174.061 315.347 173C314.286 171.924 313.763 170.636 313.779 169.136C313.763 167.652 314.286 166.379 315.347 165.318C316.422 164.258 317.718 163.727 319.233 163.727C320.672 163.727 321.938 164.258 323.029 165.318C324.119 166.379 324.672 167.652 324.688 169.136C324.672 170.136 324.407 171.053 323.892 171.886C323.392 172.705 322.733 173.364 321.915 173.864C321.097 174.348 320.203 174.591 319.233 174.591Z" fill="#2E3241"/>
<path d="M298.253 188.601C298.977 188.031 299.827 187.405 300.142 187.21C300.89 186.746 302.951 187.023 303.215 187.624C303.329 187.882 303.949 188.146 304.594 188.21C306.672 188.418 307.28 189.176 307.007 191.217C306.786 192.869 306.856 193.048 307.589 192.711C308.327 192.371 308.334 192.409 307.651 193.046C307.228 193.441 306.717 193.675 306.516 193.566C306.315 193.457 306.157 193.697 306.163 194.098C306.179 194.97 306.61 195.063 307.566 194.399C307.953 194.13 308.637 193.976 309.085 194.059C310.058 194.238 313.863 193.35 313.9 192.935C313.915 192.775 314.216 192.669 314.569 192.7C314.923 192.73 315.865 192.583 316.663 192.373C317.583 192.13 318.217 192.131 318.398 192.375C318.576 192.616 319.018 192.603 319.576 192.341C321.039 191.656 325.093 191.072 324.738 191.597C324.531 191.903 324.809 192.023 325.642 191.988C326.401 191.956 327.214 192.247 327.846 192.777C328.666 193.464 328.741 193.778 328.256 194.501C327.93 194.987 327.781 195.544 327.925 195.739C328.069 195.934 327.969 196.073 327.702 196.049C327.436 196.025 327.066 196.357 326.88 196.786C326.695 197.215 326.194 198.055 325.768 198.654C324.938 199.818 325.169 200.402 326.311 200.024C326.698 199.896 327.342 199.786 327.741 199.78C328.141 199.774 328.67 199.579 328.918 199.346C329.166 199.113 329.523 199.052 329.712 199.21C329.9 199.369 330.37 199.352 330.755 199.174C331.14 198.996 332.097 198.859 332.883 198.87C333.669 198.881 334.414 198.718 334.538 198.508C334.663 198.299 335.101 198.158 335.512 198.195C335.922 198.232 336.852 198.054 337.577 197.799C338.302 197.545 338.885 197.46 338.871 197.611C338.858 197.763 339.274 197.67 339.797 197.406C340.762 196.918 346.339 195.846 346.633 196.092C346.935 196.345 346.04 197.343 345.55 197.299C345.281 197.274 345.218 197.107 345.411 196.926C345.603 196.745 345.515 196.575 345.216 196.548C344.917 196.521 344.651 196.735 344.625 197.024C344.594 197.367 344.288 197.443 343.742 197.243C343.261 197.067 343.025 197.096 343.184 197.311C343.336 197.517 343.201 197.897 342.885 198.157C342.415 198.541 342.373 198.517 342.655 198.028C342.845 197.699 342.777 197.409 342.503 197.384C342.229 197.359 341.994 197.465 341.98 197.618C341.948 197.974 338.765 198.521 338.273 198.254C338.07 198.145 337.749 198.283 337.56 198.562C337.12 199.214 337.854 199.271 339.88 198.742C340.768 198.511 341.592 198.402 341.711 198.502C341.829 198.602 340.975 198.918 339.811 199.204C338.283 199.581 337.55 199.603 337.17 199.284C336.79 198.966 336.496 198.98 336.111 199.333C335.818 199.602 335.579 199.66 335.579 199.462C335.58 199.264 335.197 199.554 334.728 200.106C334.259 200.658 334.013 200.839 334.181 200.507C334.349 200.176 334.262 199.884 333.988 199.859C333.714 199.835 333.474 199.995 333.454 200.216C333.431 200.471 332.868 200.491 331.915 200.27C331.088 200.078 330.259 200.064 330.073 200.239C329.887 200.414 330.127 200.592 330.608 200.635C331.501 200.716 332.759 201.804 332.701 202.446C332.684 202.642 332.372 202.476 332.009 202.077C331.645 201.677 331.091 201.434 330.778 201.537C330.465 201.639 330.223 201.57 330.239 201.383C330.29 200.821 328.843 200.474 327.445 200.712C326.143 200.933 325.571 201.622 326.612 201.716C326.912 201.743 327.043 201.611 326.904 201.423C326.566 200.966 328.449 200.815 329.229 201.237C329.943 201.623 328.225 202.222 326.778 202.092C326.065 202.027 326.015 202.119 326.501 202.607C326.827 202.934 327.006 203.207 326.899 203.213C326.792 203.22 326.008 203.241 325.157 203.26C324.305 203.279 323.414 203.469 323.175 203.682C322.885 203.942 322.661 203.795 322.497 203.237C322.363 202.779 322.049 202.386 321.799 202.363C321.55 202.341 321.421 202.127 321.514 201.887C321.606 201.648 321.306 201.46 320.845 201.471C320.163 201.486 320.053 201.169 320.248 199.746C320.432 198.413 320.279 197.888 319.6 197.518C318.893 197.133 318.703 197.143 318.664 197.573C318.62 198.056 318.285 198.148 317.262 197.959C317.083 197.926 316.728 198.095 316.473 198.335C316.217 198.575 315.708 198.762 315.341 198.75C314.973 198.737 314.266 198.716 313.769 198.701C313.272 198.686 312.841 198.934 312.812 199.251C312.773 199.688 312.391 199.756 311.232 199.532C310.28 199.346 309.69 199.392 309.667 199.652C309.616 200.21 307.191 200.719 306.24 200.371C305.822 200.218 305.468 200.245 305.451 200.429C305.434 200.615 305.074 200.735 304.649 200.696C304.225 200.658 303.895 200.438 303.916 200.207C303.937 199.977 303.392 199.553 302.706 199.265C301.681 198.836 301.449 198.836 301.41 199.27C301.383 199.561 301.709 199.83 302.133 199.869C302.557 199.907 302.89 200.099 302.872 200.296C302.827 200.796 300.596 200.541 299.897 199.955C299.078 199.269 299.222 198.887 300.271 198.969C301.055 199.03 301.043 198.976 300.179 198.547C298.805 197.865 298.801 197.861 299.22 197.467C299.479 197.223 299.886 197.255 300.546 197.57C301.315 197.939 301.45 197.916 301.247 197.455C301.065 197.04 300.233 196.814 298.224 196.633C295.108 196.352 294.619 196.372 294.769 196.772C294.826 196.926 294.281 196.998 293.558 196.933C292.834 196.868 292.362 196.976 292.508 197.174C293.114 197.993 289.297 198.19 288.145 197.399C287.573 197.007 287.49 197.07 287.675 197.754C287.851 198.4 287.682 198.565 286.921 198.496C286.382 198.448 285.955 198.252 285.972 198.062C285.989 197.871 285.686 197.77 285.298 197.837C284.476 197.979 283.722 197.314 283.11 195.906C282.752 195.083 282.805 194.952 283.405 195.172C283.807 195.319 284.15 195.28 284.168 195.085C284.23 194.398 281.641 194.132 280.42 194.701C279.27 195.237 279.265 195.26 280.256 195.366C281.099 195.457 281.141 195.524 280.486 195.744C279.896 195.942 279.515 195.772 279.02 195.09L278.352 194.168L277.705 194.896C277.275 195.382 276.664 195.558 275.874 195.423C274.618 195.21 273.075 195.7 273.441 196.196C273.792 196.671 270.945 196.67 268.083 196.194C266.296 195.897 265.167 195.882 264.594 196.147C263.902 196.468 263.679 196.448 263.378 196.041C263.118 195.689 262.895 195.649 262.622 195.905C262.041 196.451 260.693 196.212 259.965 195.434C259.363 194.791 259.34 194.792 259.607 195.464C259.817 195.992 259.702 196.115 259.178 195.926C257.068 195.164 256.193 194.987 256.163 195.314C256.145 195.514 254.823 195.549 253.176 195.392C251.551 195.239 248.824 195.097 247.116 195.078C245.407 195.058 242.968 194.952 241.696 194.84C240.423 194.728 239.059 194.785 238.665 194.965C238.231 195.164 237.824 195.15 237.632 194.928C237.133 194.351 233.409 194.121 233.656 194.682C233.905 195.25 229.484 194.953 229.055 194.373C228.905 194.17 228.434 194.064 228.01 194.137C227.575 194.212 227.255 194.068 227.279 193.807C227.302 193.546 226.784 193.674 226.09 194.101C225.001 194.77 224.846 194.783 224.742 194.208C224.643 193.668 224.484 193.623 223.791 193.944C222.906 194.354 220.763 194.359 215.346 193.964C213.505 193.83 211.859 193.828 211.689 193.961C211.518 194.093 209.013 194.072 206.122 193.914C201.557 193.664 200.873 193.551 200.917 193.06C200.963 192.544 200.89 192.537 200.11 192.982C199.19 193.506 198.28 193.565 198.322 193.1C198.363 192.645 195.127 192.537 193.697 192.944C192.714 193.224 192.352 193.206 192.227 192.871C192.105 192.545 191.732 192.542 190.829 192.858C189.902 193.184 189.192 193.171 187.961 192.808C186.182 192.284 185.212 192.387 185.702 193.05C185.9 193.318 185.778 193.343 185.365 193.119C184.483 192.642 182.263 192.293 182.546 192.675C182.901 193.155 180.847 193.216 180.283 192.742C179.934 192.45 179.566 192.421 179.08 192.646C178.695 192.824 177.608 192.863 176.665 192.732C175.695 192.597 174.83 192.672 174.673 192.904C174.487 193.179 173.945 193.184 173.041 192.918C172.065 192.632 171.12 192.68 169.662 193.089C167.968 193.565 167.572 193.569 167.235 193.113C166.896 192.655 166.597 192.623 165.34 192.911C164.519 193.099 162.914 193.247 161.775 193.24C160.636 193.233 159.345 193.323 158.907 193.44C158.056 193.667 153.458 193.795 152.811 193.61C152.598 193.549 152.499 193.353 152.59 193.174C152.692 192.975 152.395 192.943 151.82 193.092C151.305 193.225 150.622 193.243 150.302 193.132C149.982 193.02 149.554 193.084 149.352 193.275C148.807 193.786 148.008 193.614 148.064 192.997C148.091 192.703 147.765 192.43 147.341 192.392C146.917 192.353 146.549 192.563 146.522 192.858C146.478 193.348 145.432 193.498 144.159 193.197C142.408 192.782 139.425 192.527 138.673 192.728C138.086 192.885 137.713 192.807 137.568 192.498C137.43 192.203 137.316 192.242 137.258 192.606C137.186 193.049 136.696 193.119 135.116 192.914C133.989 192.767 133.056 192.775 133.042 192.931C133.015 193.228 130.64 192.806 129.811 192.357C129.525 192.203 129.48 192.301 129.7 192.599C129.98 192.977 129.738 193.025 128.714 192.794C127.967 192.625 127.22 192.615 127.053 192.772C126.887 192.929 126.321 193.018 125.795 192.971C125.271 192.923 124.747 193.041 124.634 193.232C124.499 193.459 123.597 193.394 122.033 193.046C120.716 192.752 119.501 192.591 119.332 192.687C119.164 192.783 118.712 192.865 118.327 192.87C117.943 192.874 117.144 192.939 116.554 193.015C115.827 193.108 115.338 192.941 115.043 192.498C114.65 191.907 114.567 191.915 114.19 192.576C113.854 193.165 113.454 193.252 112.145 193.021C111.249 192.862 108.753 192.899 106.597 193.101C104.441 193.304 101.632 193.457 100.354 193.442C99.0767 193.427 97.5911 193.535 97.0534 193.682C96.5152 193.829 95.7492 193.83 95.3504 193.684C94.6827 193.439 89.7712 194.017 87.7379 194.579C87.2601 194.711 86.3881 194.686 85.7995 194.523C85.2115 194.36 84.715 194.395 84.6965 194.6C84.678 194.806 83.3228 194.968 81.6843 194.96C80.0464 194.953 78.5806 195.041 78.4277 195.157C77.8074 195.627 74.0158 195.837 73.4418 195.433C73.0437 195.153 72.7601 195.172 72.543 195.494C72.3683 195.752 71.4592 196.001 70.5234 196.046C69.5871 196.091 68.4393 196.314 67.9727 196.54C66.4404 197.286 64.1088 197.397 61.9557 196.827C59.4316 196.159 59.3913 196.129 60.2455 195.535C60.6817 195.232 60.7393 195.03 60.398 194.999C60.0978 194.972 59.6942 195.098 59.5016 195.279C58.9173 195.828 58.1715 195.564 57.7911 194.674C57.5665 194.148 57.6441 193.759 57.9975 193.639C58.3834 193.508 58.3668 193.25 57.9463 192.827C57.6071 192.487 57.1416 192.269 56.9115 192.344C56.1335 192.599 56.0345 191.449 56.7811 190.831C57.377 190.337 57.4075 190.085 56.9357 189.548C56.6129 189.18 56.1887 188.971 55.9931 189.082C55.7976 189.193 55.6557 189.082 55.678 188.835C55.7326 188.23 58.5657 186.542 59.0697 186.814C59.29 186.934 59.7327 186.639 60.0531 186.161C60.5489 185.421 60.954 185.32 62.7598 185.483C64.3775 185.628 64.8284 185.548 64.6507 185.145C64.4624 184.716 64.7235 184.705 66.0223 185.088C67.9946 185.67 67.8833 185.663 67.9244 185.206C67.9432 184.998 67.7183 184.906 67.4246 185.002C67.1309 185.098 66.9202 184.85 66.9562 184.45C67.0135 183.815 67.1874 183.783 68.3184 184.194C69.0315 184.453 69.8206 184.597 70.0716 184.515C70.3231 184.433 70.4639 184.688 70.3853 185.081C70.2245 185.882 69.6337 185.98 69.299 185.262C69.1414 184.923 69.0582 184.909 69.0012 185.214C68.891 185.803 69.6609 186.149 70.6885 185.972C71.1654 185.89 71.4541 185.591 71.3298 185.308C71.2056 185.025 71.3493 184.816 71.6495 184.843C71.9497 184.87 72.2869 185.223 72.3986 185.627C72.5103 186.032 72.8228 186.29 73.0925 186.202C73.3627 186.114 74.3022 185.964 75.1803 185.87C76.5466 185.723 76.6811 185.766 76.11 186.163C75.5726 186.536 75.6051 186.641 76.2769 186.702C76.7355 186.743 77.1397 186.496 77.1749 186.152C77.2242 185.674 77.3312 185.648 77.6309 186.043C77.9421 186.453 78.1029 186.44 78.4139 185.98C78.7135 185.537 79.1731 185.486 80.369 185.764C81.6389 186.059 81.9924 186.001 82.255 185.457C82.5226 184.903 82.7342 184.873 83.4834 185.282C83.9818 185.554 84.263 185.894 84.109 186.039C83.7268 186.398 84.4871 186.427 85.4643 186.089C85.9992 185.905 86.0524 185.791 85.6246 185.749C84.5978 185.647 84.9386 185.063 86.0849 184.96C86.6602 184.908 86.999 184.989 86.8376 185.141C86.6763 185.292 86.7568 185.531 87.0162 185.671C87.2756 185.812 87.7402 185.665 88.0483 185.346C88.5771 184.798 88.6632 184.808 89.6174 185.536C90.1726 185.96 90.6424 186.135 90.6613 185.925C90.6803 185.715 91.6308 185.518 92.7737 185.487C93.9166 185.456 94.8648 185.285 94.881 185.105C94.8972 184.926 95.5026 184.833 96.2259 184.898C96.9717 184.965 97.3901 185.159 97.1914 185.345C96.6365 185.867 97.7687 185.816 98.7154 185.277C99.1896 185.007 99.5577 184.965 99.5379 185.184C99.5119 185.472 99.8035 185.497 100.611 185.277C101.22 185.111 101.834 185.071 101.976 185.19C102.289 185.453 103.438 184.832 103.912 184.143C104.11 183.856 104.251 184.104 104.239 184.72C104.222 185.657 104.286 185.71 104.726 185.124C105.004 184.753 105.228 184.669 105.224 184.938C105.219 185.285 105.634 185.397 106.651 185.326C107.715 185.251 107.877 185.301 107.281 185.518C106.591 185.77 106.604 185.824 107.376 185.898C107.871 185.946 108.291 185.813 108.31 185.603C108.33 185.384 108.774 185.358 109.352 185.541C109.906 185.717 110.372 185.725 110.387 185.558C110.402 185.391 111.125 185.135 111.993 184.989C112.861 184.843 113.558 184.87 113.542 185.05C113.476 185.779 114.902 185.435 115.539 184.568C115.914 184.057 116.081 183.963 115.91 184.36C115.638 184.989 115.796 185.078 117.162 185.062C118.174 185.05 118.711 185.198 118.685 185.481C118.664 185.722 119.135 185.58 119.733 185.166C120.716 184.485 120.816 184.479 120.776 185.096C120.736 185.711 120.844 185.703 121.881 185.015L123.031 184.253L123.939 185.186C124.438 185.698 124.884 186.022 124.93 185.906C124.977 185.789 125.087 185.537 125.175 185.347C125.263 185.157 125.375 184.891 125.423 184.757C125.471 184.622 125.77 184.73 126.088 184.997C126.782 185.579 127.99 185.74 128.034 185.256C128.051 185.066 127.709 184.971 127.275 185.046C126.841 185.121 126.498 185.038 126.514 184.863C126.53 184.687 127.008 184.56 127.576 184.582C128.166 184.604 128.589 184.841 128.563 185.135C128.537 185.417 128.745 185.693 129.026 185.749C130.476 186.033 130.817 185.992 130.859 185.529C130.884 185.251 131.258 184.988 131.689 184.946C132.386 184.878 132.384 184.904 131.668 185.179C130.58 185.598 131.395 185.654 132.629 185.245C133.392 184.993 133.956 185.077 135.173 185.626C136.033 186.014 136.868 186.208 137.029 186.057C137.189 185.907 137.037 185.676 136.691 185.544C136.294 185.394 136.38 185.323 136.921 185.354C137.393 185.381 137.859 185.613 137.956 185.869C138.087 186.217 138.326 186.251 138.894 186.003C139.313 185.82 140.231 185.763 140.933 185.876C141.635 185.989 142.998 185.904 143.96 185.688C145.272 185.394 145.848 185.411 146.26 185.756C147.035 186.407 147.624 186.391 147.684 185.717C147.718 185.345 148.01 185.243 148.515 185.428C149.002 185.606 149.176 185.555 148.981 185.29C148.763 184.996 149.189 184.994 150.379 185.284C151.32 185.513 152.155 185.85 152.234 186.032C152.314 186.215 152.588 186.296 152.844 186.212C153.099 186.128 153.191 185.793 153.047 185.466C152.824 184.958 152.947 184.948 153.886 185.398C154.747 185.809 155.168 185.84 155.816 185.541C156.502 185.223 156.726 185.279 157.118 185.867C157.566 186.539 157.647 186.536 158.641 185.807C159.218 185.384 159.607 185.253 159.505 185.516C159.403 185.779 159.602 186.094 159.947 186.216C160.293 186.338 160.59 186.264 160.61 186.051C160.629 185.836 161.577 185.748 162.735 185.852C163.884 185.956 165.316 185.907 165.916 185.743C166.535 185.574 166.858 185.586 166.663 185.77C166.473 185.948 166.754 186.214 167.285 186.361C167.993 186.557 168.187 186.477 168.006 186.065C167.8 185.599 167.937 185.587 168.796 185.998C169.479 186.325 169.955 186.382 170.185 186.165C170.379 185.984 171.435 185.916 172.532 186.015C173.629 186.114 174.685 186.047 174.877 185.867C175.374 185.4 177.103 185.62 177.313 186.176C177.444 186.524 177.683 186.558 178.251 186.311C179.128 185.928 181.908 185.619 182.655 185.82C184.158 186.226 186.995 186.537 187.017 186.298C187.03 186.146 187.733 186.118 188.577 186.235C189.421 186.352 190.126 186.298 190.143 186.114C190.16 185.926 190.621 185.994 191.198 186.27C191.948 186.629 192.419 186.67 192.952 186.424C193.354 186.237 193.794 186.24 193.934 186.43C194.074 186.619 194.952 186.807 195.886 186.848C196.82 186.889 197.901 187.134 198.289 187.392C198.828 187.752 198.913 187.749 198.648 187.38C198.424 187.068 198.63 186.919 199.234 186.957C204.653 187.294 211.003 187.243 211.444 186.859C211.735 186.606 211.849 186.615 211.83 186.888C211.815 187.101 212.613 187.349 213.602 187.438C214.894 187.555 215.42 187.441 215.468 187.036C215.521 186.588 215.64 186.624 216.045 187.208C216.54 187.923 216.576 187.927 217.312 187.343C217.729 187.013 218.052 186.94 218.03 187.181C218.001 187.504 218.262 187.545 219.021 187.338C219.648 187.167 220.156 187.198 220.318 187.417C220.563 187.749 222.492 187.844 224.086 187.603C224.45 187.547 225.309 187.707 225.997 187.957C226.78 188.241 227.259 188.285 227.278 188.074C227.294 187.888 227.608 187.846 227.974 187.98C228.341 188.114 229.257 188.118 230.012 187.99C230.766 187.862 231.445 187.891 231.52 188.056C231.596 188.22 233.004 188.287 234.65 188.205C236.297 188.123 237.632 188.183 237.618 188.339C237.604 188.496 238.185 188.523 238.908 188.399C239.865 188.237 240.225 188.296 240.225 188.617C240.226 188.954 240.298 188.958 240.527 188.633C240.693 188.399 241.031 188.318 241.28 188.452C241.528 188.587 241.743 188.567 241.758 188.408C241.772 188.248 242.768 188.195 243.971 188.289C246.689 188.502 249.118 188.457 249.968 188.18C250.328 188.062 250.963 188.259 251.399 188.626C251.954 189.09 252.354 189.186 252.765 188.952C253.085 188.77 253.865 188.668 254.499 188.725C255.132 188.782 255.794 188.694 255.969 188.529C256.328 188.192 257.251 188.313 258.174 188.817C258.514 189.003 259.07 189.064 259.409 188.953C259.75 188.842 260.822 188.843 261.793 188.956C262.765 189.07 264.278 188.975 265.156 188.746C266.035 188.517 266.583 188.489 266.375 188.685C265.858 189.171 266.374 189.175 267.79 188.696C269.026 188.278 270.062 188.359 272.424 189.057C273.451 189.361 274.096 189.339 274.805 188.978C275.339 188.705 276.263 188.526 276.857 188.58C277.488 188.636 278.102 188.391 278.33 187.992C278.545 187.615 278.95 187.327 279.23 187.352C279.511 187.377 279.566 187.562 279.353 187.762C279.084 188.015 279.346 188.071 280.212 187.947C281.554 187.755 282.636 187.843 285.035 188.337C285.875 188.51 286.737 188.686 286.952 188.728C287.167 188.77 287.676 189.4 288.084 190.128C288.787 191.38 288.877 191.422 289.753 190.909C290.262 190.611 290.59 190.237 290.482 190.079C290.373 189.92 290.53 189.813 290.829 189.84C291.128 189.867 291.351 190.132 291.325 190.428C291.285 190.869 291.461 190.906 292.295 190.63C292.892 190.432 293.26 189.997 293.184 189.577C293.112 189.184 293.189 188.976 293.355 189.115C293.521 189.254 293.968 189.224 294.348 189.048C294.823 188.828 295.335 188.87 295.989 189.182C296.775 189.559 297.162 189.459 298.253 188.601Z" fill="#2E3241"/>
<path d="M274.908 188.584C274.614 188.68 274.389 188.588 274.408 188.38C274.427 188.172 274.674 188.022 274.956 188.048C275.239 188.073 275.464 188.165 275.456 188.252C275.448 188.339 275.202 188.488 274.908 188.584Z" fill="#2E3241"/>
<path d="M350.486 195.582C350.187 195.555 349.956 195.372 349.974 195.175C349.991 194.979 350.108 194.827 350.232 194.838C350.357 194.849 350.588 195.032 350.745 195.245C350.902 195.457 350.785 195.609 350.486 195.582Z" fill="#2E3241"/>
<path d="M347.953 195.688C347.246 195.604 347.282 195.545 348.142 195.37C349.555 195.083 349.573 195.085 349.17 195.463C348.978 195.644 348.43 195.745 347.953 195.688Z" fill="#2E3241"/>
<path d="M273.705 188.873C273.524 188.976 273.079 188.949 272.718 188.813C272.318 188.662 272.447 188.588 273.047 188.625C273.591 188.658 273.886 188.77 273.705 188.873Z" fill="#2E3241"/>
<path d="M262.232 188.702C262.107 188.69 261.876 188.507 261.719 188.295C261.562 188.083 261.679 187.931 261.978 187.958C262.277 187.985 262.508 188.168 262.49 188.365C262.473 188.561 262.356 188.713 262.232 188.702Z" fill="#2E3241"/>
<path d="M183.939 185.603C183.64 185.576 183.553 185.406 183.745 185.225C183.938 185.044 184.197 184.906 184.322 184.917C184.447 184.928 184.534 185.098 184.516 185.295C184.498 185.491 184.239 185.63 183.939 185.603Z" fill="#2E3241"/>
<path d="M161.418 185.373C160.977 185.333 160.774 185.153 160.966 184.972C161.159 184.791 161.533 184.663 161.8 184.687C162.066 184.711 162.269 184.891 162.251 185.088C162.233 185.285 161.858 185.413 161.418 185.373Z" fill="#2E3241"/>
<path d="M150.975 185.146C150.206 185.072 150.192 185.019 150.878 184.783C151.887 184.434 151.945 184.439 151.906 184.876C151.888 185.072 151.469 185.194 150.975 185.146Z" fill="#2E3241"/>
<path d="M333.119 201.36C332.69 201.203 332.346 201.012 332.353 200.934C332.379 200.645 333.344 200.896 333.615 201.263C333.777 201.482 333.565 201.523 333.119 201.36Z" fill="#2E3241"/>
<path d="M145.845 184.567C145.483 184.635 144.904 184.583 144.56 184.451C144.215 184.321 144.512 184.265 145.218 184.329C145.925 184.393 146.207 184.5 145.845 184.567Z" fill="#2E3241"/>
<path d="M139.933 185.415C139.664 185.269 139.458 184.999 139.474 184.814C139.521 184.3 139.879 184.446 140.165 185.096C140.312 185.43 140.212 185.566 139.933 185.415Z" fill="#2E3241"/>
<path d="M328.06 202.56C328.075 202.397 328.499 202.226 329.002 202.18C329.504 202.135 329.975 202.085 330.048 202.068C330.121 202.052 330.167 202.18 330.152 202.354C330.136 202.528 329.653 202.712 329.078 202.764C328.504 202.816 328.046 202.724 328.06 202.56Z" fill="#2E3241"/>
<path d="M117.177 184.626C116.878 184.599 116.79 184.429 116.983 184.248C117.175 184.067 117.434 183.928 117.559 183.939C117.684 183.951 117.772 184.121 117.754 184.317C117.736 184.514 117.476 184.653 117.177 184.626Z" fill="#2E3241"/>
<path d="M100.503 184.42C100.321 184.524 99.8767 184.496 99.5154 184.36C99.1154 184.209 99.2449 184.135 99.8453 184.172C100.389 184.205 100.684 184.317 100.503 184.42Z" fill="#2E3241"/>
<path d="M78.3161 184.904C76.8563 184.967 77.6071 184.451 79.1448 184.335C79.7188 184.291 80.2944 184.246 80.4235 184.235C80.5525 184.223 80.4067 184.358 80.0997 184.533C79.7921 184.708 78.9893 184.875 78.3161 184.904Z" fill="#2E3241"/>
<path d="M81.3899 185.551C81.13 185.411 81.0689 185.071 81.2542 184.797C81.7285 184.095 82.0065 184.208 81.9286 185.071C81.8921 185.475 81.6498 185.692 81.3899 185.551Z" fill="#2E3241"/>
<path d="M63.3282 185.173C63.0809 185.151 62.9144 184.734 62.9584 184.246C63.0025 183.758 63.2331 183.464 63.4708 183.592C63.7085 183.721 63.875 184.138 63.8406 184.52C63.8061 184.902 63.5755 185.196 63.3282 185.173Z" fill="#2E3241"/>
<path d="M59.3981 184.362C59.2391 184.229 59.3084 183.933 59.5524 183.704C59.9091 183.368 60.0304 183.379 60.1714 183.758C60.3735 184.299 59.8293 184.724 59.3981 184.362Z" fill="#2E3241"/>
<path d="M61.4792 184.495C61.0976 184.176 60.7942 183.823 60.8043 183.71C60.8572 183.124 62.148 183.734 62.1592 184.351C62.1706 184.982 62.0819 185.001 61.4792 184.495Z" fill="#2E3241"/>
<path d="M74.1321 185.328C73.5693 185.248 73.1194 185.065 73.1323 184.922C73.1451 184.78 73.6161 184.729 74.1788 184.81C74.7416 184.891 75.1915 185.073 75.1787 185.216C75.1658 185.358 74.6949 185.409 74.1321 185.328Z" fill="#2E3241"/>
<path d="M56.9181 186.577C56.6245 186.673 56.3996 186.581 56.4183 186.373C56.4371 186.165 56.6838 186.016 56.9665 186.041C57.2492 186.067 57.4742 186.158 57.4663 186.245C57.4585 186.332 57.2118 186.481 56.9181 186.577Z" fill="#2E3241"/>
<path d="M17.611 31.0701C18.0298 30.5848 10.2534 26.715 9.02539 27.8936" stroke="#2E3241" stroke-width="5" stroke-miterlimit="1.5" stroke-linecap="round"/>
<path d="M24.0289 13.7715C24.1393 13.5291 23.9227 13.1356 23.9309 13.335C23.9262 16.1692 24.6284 21.5796 26.6764 23.6017" stroke="#2E3241" stroke-width="5" stroke-miterlimit="1.5" stroke-linecap="round"/>
<path d="M38.975 9.70959C40.9579 5.14195 39.1865 16.8575 40.4844 18.1423" stroke="#2E3241" stroke-width="5" stroke-miterlimit="1.5" stroke-linecap="round"/>
<path d="M63.0492 38.727C58.2734 38.5726 54.94 37.4233 51.4068 34.3248C50.7001 33.7051 48.2538 29.7405 47.6083 29.6378C47.2447 29.5675 47.3508 30.2029 47.2037 30.5258C46.2554 32.8241 45.6134 35.7527 43.2232 37.0915C41.1435 38.1829 38.8966 38.122 36.6702 37.5819C35.6163 37.2904 34.052 35.2971 33.5738 36.3466C32.9934 37.8376 34.3288 40.116 33.7565 41.8062C31.6513 48.1633 24.5271 44.4806 20.5483 43.2285C19.8579 43.0073 21.5531 44.2791 22.0146 44.7856C22.7743 45.723 23.4236 46.9026 23.7543 48.1305C24.6565 51.577 22.8459 55.3336 20.5413 57.787" stroke="#2E3241" stroke-width="5" stroke-miterlimit="1.5" stroke-linecap="round"/>
</svg>
