<svg width="38" height="38" viewBox="0 0 38 38" fill="none" xmlns="http://www.w3.org/2000/svg">
<g clip-path="url(#clip0_1432_20983)">
<path fill-rule="evenodd" clip-rule="evenodd" d="M4.83933 16.8074C6.53472 16.2033 8.3188 15.4004 9.6946 14.2379C11.3286 12.8573 11.9931 11.0791 12.4394 9.20737C13.0123 6.80265 13.2412 4.24103 13.9359 1.83241C14.1932 0.937953 14.6882 0.599845 14.9006 0.449793C15.4375 0.0707676 15.9802 -0.0305458 16.4907 0.00745425C17.0958 0.0513004 17.927 0.280259 18.4736 1.29457C18.5515 1.43975 18.6528 1.66094 18.721 1.96396C18.7707 2.18612 18.8029 2.88082 18.8555 3.16728C18.987 3.87272 19.0971 4.57818 19.2004 5.28751C19.5444 7.64838 19.7422 9.65359 20.8286 11.8225C22.3028 14.767 23.78 16.5686 25.7832 17.3666C27.7203 18.1383 30.0363 17.9932 32.9954 17.3881C33.277 17.3199 33.5556 17.2614 33.8314 17.2137C35.1361 16.9857 36.3833 17.8421 36.6395 19.1419C36.8958 20.4407 36.0666 21.7064 34.7736 21.9919C34.5037 22.0513 34.2377 22.1079 33.9747 22.1595C29.9759 23.1494 25.3467 26.6825 22.6565 29.7761C21.8273 30.73 20.6133 33.3968 19.3748 35.098C18.4609 36.353 17.4339 37.1802 16.5716 37.4725C15.9938 37.6693 15.5066 37.6392 15.1042 37.5398C14.5196 37.3956 14.0344 37.0789 13.6622 36.5751C13.4595 36.2994 13.2714 35.9301 13.1818 35.4585C13.1389 35.2315 13.1341 34.6547 13.1351 34.3936C12.8827 33.5254 12.5738 32.6777 12.3487 31.8017C11.8119 29.7117 10.7586 28.3886 9.5075 26.6406C8.3373 25.0046 7.08042 23.9767 5.2379 23.1563C4.99821 23.0978 3.0641 22.6243 2.38108 22.3524C1.38333 21.9539 0.907821 21.2865 0.735359 20.9269C0.442077 20.317 0.411899 19.784 0.47036 19.3397C0.557078 18.684 0.851336 18.1228 1.37359 17.6697C1.69708 17.3881 2.18037 17.1143 2.82734 16.9808C3.32719 16.8765 4.65323 16.8161 4.83933 16.8074ZM16.1858 13.401C16.2754 13.6007 16.3709 13.8014 16.4722 14.0041C18.6314 18.3166 21.0459 20.7243 23.9806 21.8925L24.0791 21.9305C22.1157 23.3882 20.3385 25.0173 18.9802 26.5792C18.4209 27.2223 17.6804 28.5581 16.8805 29.9281C16.1536 27.5653 14.9649 25.8952 13.4702 23.8052C12.3283 22.2102 11.1318 21.0098 9.66147 20.0315C10.8024 19.4459 11.8908 18.76 12.8388 17.9591C14.4173 16.6252 15.4608 15.0798 16.1858 13.401Z" fill="#DBDBE9"/>
</g>
<defs>
<clipPath id="clip0_1432_20983">
<rect width="38" height="38" fill="white"/>
</clipPath>
</defs>
</svg>
