<svg width="902" height="325" viewBox="0 0 902 325" fill="none" xmlns="http://www.w3.org/2000/svg">
<path d="M107 87.7578C107.72 79.3984 110.31 71.1637 111.893 62.929C112.469 59.9346 112.756 56.9402 113.044 53.9458C113.188 52.5733 112.037 49.3294 113.62 49.7037C114.915 49.9532 116.642 53.4467 117.361 54.4448C120.527 59.3108 122.83 64.551 125.42 69.6665C125.852 70.5399 127.003 74.5324 127.723 74.7819C129.018 75.281 132.615 72.2866 133.479 71.538C136.645 68.5436 142.545 56.6906 144.848 55.5677C145.567 55.1934 147.87 57.9383 148.301 58.4374C150.748 61.8061 151.755 66.2978 152.475 70.1656C152.762 71.6628 152.906 73.16 152.762 74.7819C152.762 74.9067 152.762 76.0296 152.762 76.0296C161.829 76.6534 166.721 64.4262 170.463 63.5528C171.614 63.3033 173.341 68.294 173.485 69.0427C174.061 71.2885 175.212 86.6349 174.061 88.1321C171.758 91.1265 162.836 89.255 159.382 89.1302C145.423 88.2568 131.32 88.5064 117.361 88.7559" stroke="#2E3241" stroke-width="7.33137" stroke-miterlimit="1.5" stroke-linecap="round"/>
<path d="M111.03 88.6313C110.022 88.6313 109.159 88.5066 108.151 88.3818" stroke="#2E3241" stroke-width="7.33137" stroke-miterlimit="1.5" stroke-linecap="round"/>
<path d="M121.966 27.6201C123.981 29.8659 126.14 31.987 127.435 34.6071" stroke="#2E3241" stroke-width="7.33137" stroke-miterlimit="1.5" stroke-linecap="round"/>
<path d="M144.272 25C144.704 26.7467 145.279 28.4935 145.567 30.2403" stroke="#2E3241" stroke-width="7.33137" stroke-miterlimit="1.5" stroke-linecap="round"/>
<path d="M169.168 27.6201C167.153 30.1155 165.426 32.3613 164.275 35.1062" stroke="#2E3241" stroke-width="7.33137" stroke-miterlimit="1.5" stroke-linecap="round"/>
<path d="M184.422 33.6084C182.695 35.8542 182.839 35.6047 181.256 38.1" stroke="#2E3241" stroke-width="7.33137" stroke-miterlimit="1.5" stroke-linecap="round"/>
<path d="M163.418 103.455V166H150.347V114.205H125.06V166H111.989V103.455H163.418ZM195.239 166.916C190.495 166.916 186.392 165.908 182.931 163.893C179.49 161.857 176.833 159.027 174.96 155.403C173.087 151.758 172.151 147.534 172.151 142.729C172.151 137.883 173.087 133.648 174.96 130.024C176.833 126.38 179.49 123.55 182.931 121.534C186.392 119.498 190.495 118.48 195.239 118.48C199.982 118.48 204.075 119.498 207.516 121.534C210.977 123.55 213.644 126.38 215.517 130.024C217.39 133.648 218.327 137.883 218.327 142.729C218.327 147.534 217.39 151.758 215.517 155.403C213.644 159.027 210.977 161.857 207.516 163.893C204.075 165.908 199.982 166.916 195.239 166.916ZM195.3 156.838C197.458 156.838 199.26 156.227 200.705 155.006C202.151 153.764 203.24 152.074 203.973 149.936C204.726 147.798 205.103 145.365 205.103 142.637C205.103 139.909 204.726 137.476 203.973 135.338C203.24 133.2 202.151 131.51 200.705 130.268C199.26 129.027 197.458 128.406 195.3 128.406C193.121 128.406 191.289 129.027 189.803 130.268C188.337 131.51 187.227 133.2 186.474 135.338C185.741 137.476 185.374 139.909 185.374 142.637C185.374 145.365 185.741 147.798 186.474 149.936C187.227 152.074 188.337 153.764 189.803 155.006C191.289 156.227 193.121 156.838 195.3 156.838ZM252.796 151.616L265.501 119.091H275.396L257.102 166H248.46L230.594 119.091H240.458L252.796 151.616ZM237.496 119.091V166H225.066V119.091H237.496ZM268.738 166V119.091H281.015V166H268.738ZM310.553 166.916C305.809 166.916 301.706 165.908 298.245 163.893C294.804 161.857 292.147 159.027 290.274 155.403C288.401 151.758 287.464 147.534 287.464 142.729C287.464 137.883 288.401 133.648 290.274 130.024C292.147 126.38 294.804 123.55 298.245 121.534C301.706 119.498 305.809 118.48 310.553 118.48C315.296 118.48 319.389 119.498 322.829 121.534C326.291 123.55 328.958 126.38 330.831 130.024C332.704 133.648 333.641 137.883 333.641 142.729C333.641 147.534 332.704 151.758 330.831 155.403C328.958 159.027 326.291 161.857 322.829 163.893C319.389 165.908 315.296 166.916 310.553 166.916ZM310.614 156.838C312.772 156.838 314.574 156.227 316.019 155.006C317.465 153.764 318.554 152.074 319.287 149.936C320.04 147.798 320.417 145.365 320.417 142.637C320.417 139.909 320.04 137.476 319.287 135.338C318.554 133.2 317.465 131.51 316.019 130.268C314.574 129.027 312.772 128.406 310.614 128.406C308.435 128.406 306.603 129.027 305.116 130.268C303.651 131.51 302.541 133.2 301.788 135.338C301.055 137.476 300.688 139.909 300.688 142.637C300.688 145.365 301.055 147.798 301.788 149.936C302.541 152.074 303.651 153.764 305.116 155.006C306.603 156.227 308.435 156.838 310.614 156.838ZM372.508 119.091V129.322H353.024V166H340.38V119.091H372.508ZM390.417 166.886C387.424 166.886 384.757 166.366 382.416 165.328C380.075 164.269 378.222 162.712 376.858 160.656C375.514 158.579 374.842 155.993 374.842 152.898C374.842 150.292 375.321 148.104 376.277 146.332C377.234 144.561 378.537 143.136 380.187 142.057C381.836 140.978 383.709 140.163 385.806 139.614C387.923 139.064 390.143 138.677 392.464 138.453C395.192 138.168 397.391 137.903 399.06 137.659C400.73 137.394 401.941 137.008 402.694 136.499C403.448 135.99 403.824 135.236 403.824 134.239V134.055C403.824 132.121 403.214 130.625 401.992 129.566C400.791 128.507 399.08 127.978 396.861 127.978C394.52 127.978 392.657 128.497 391.272 129.536C389.888 130.554 388.972 131.836 388.524 133.384L376.491 132.406C377.102 129.556 378.303 127.092 380.095 125.016C381.887 122.919 384.197 121.31 387.027 120.19C389.878 119.05 393.176 118.48 396.922 118.48C399.528 118.48 402.022 118.786 404.405 119.396C406.807 120.007 408.935 120.954 410.787 122.237C412.66 123.519 414.137 125.168 415.216 127.184C416.295 129.179 416.834 131.571 416.834 134.361V166H404.496V159.495H404.13C403.376 160.961 402.369 162.254 401.106 163.374C399.844 164.473 398.327 165.338 396.556 165.969C394.785 166.58 392.738 166.886 390.417 166.886ZM394.143 157.907C396.057 157.907 397.747 157.53 399.213 156.777C400.679 156.003 401.829 154.965 402.664 153.662C403.499 152.359 403.916 150.883 403.916 149.234V144.256C403.509 144.52 402.949 144.765 402.236 144.989C401.544 145.192 400.76 145.386 399.885 145.569C399.009 145.732 398.134 145.884 397.258 146.027C396.383 146.149 395.589 146.261 394.876 146.363C393.349 146.587 392.016 146.943 390.875 147.432C389.735 147.92 388.85 148.582 388.219 149.417C387.587 150.231 387.272 151.249 387.272 152.471C387.272 154.242 387.913 155.596 389.196 156.533C390.499 157.449 392.148 157.907 394.143 157.907ZM446.586 166.916C441.76 166.916 437.607 165.939 434.125 163.984C430.664 162.009 427.997 159.22 426.124 155.616C424.251 151.992 423.314 147.707 423.314 142.759C423.314 137.934 424.251 133.699 426.124 130.055C427.997 126.41 430.634 123.57 434.034 121.534C437.454 119.498 441.465 118.48 446.066 118.48C449.161 118.48 452.042 118.979 454.709 119.977C457.397 120.954 459.738 122.43 461.733 124.405C463.749 126.38 465.317 128.864 466.436 131.857C467.556 134.829 468.116 138.311 468.116 142.301V145.874H428.506V137.812H455.87C455.87 135.939 455.462 134.279 454.648 132.834C453.834 131.388 452.704 130.258 451.258 129.444C449.833 128.609 448.174 128.192 446.28 128.192C444.305 128.192 442.554 128.65 441.027 129.566C439.521 130.462 438.34 131.673 437.485 133.2C436.63 134.707 436.192 136.387 436.171 138.239V145.905C436.171 148.226 436.599 150.231 437.454 151.921C438.33 153.611 439.561 154.914 441.149 155.83C442.737 156.746 444.621 157.205 446.799 157.205C448.245 157.205 449.568 157.001 450.769 156.594C451.971 156.187 452.999 155.576 453.854 154.761C454.709 153.947 455.361 152.949 455.809 151.768L467.841 152.562C467.23 155.454 465.978 157.978 464.085 160.136C462.212 162.274 459.789 163.944 456.816 165.145C453.864 166.326 450.454 166.916 446.586 166.916ZM502.616 151.616L515.321 119.091H525.216L506.922 166H498.28L480.414 119.091H490.278L502.616 151.616ZM487.316 119.091V166H474.886V119.091H487.316ZM518.558 166V119.091H530.835V166H518.558ZM590.009 137.354V147.585H565.516V137.354H590.009ZM569.792 119.091V166H557.362V119.091H569.792ZM598.163 119.091V166H585.825V119.091H598.163ZM619.913 166.886C616.92 166.886 614.253 166.366 611.912 165.328C609.57 164.269 607.718 162.712 606.353 160.656C605.01 158.579 604.338 155.993 604.338 152.898C604.338 150.292 604.816 148.104 605.773 146.332C606.73 144.561 608.033 143.136 609.682 142.057C611.331 140.978 613.204 140.163 615.302 139.614C617.419 139.064 619.638 138.677 621.959 138.453C624.687 138.168 626.886 137.903 628.556 137.659C630.225 137.394 631.437 137.008 632.19 136.499C632.943 135.99 633.32 135.236 633.32 134.239V134.055C633.32 132.121 632.709 130.625 631.488 129.566C630.286 128.507 628.576 127.978 626.357 127.978C624.016 127.978 622.153 128.497 620.768 129.536C619.384 130.554 618.468 131.836 618.02 133.384L605.987 132.406C606.598 129.556 607.799 127.092 609.591 125.016C611.382 122.919 613.693 121.31 616.523 120.19C619.374 119.05 622.672 118.48 626.418 118.48C629.024 118.48 631.518 118.786 633.9 119.396C636.303 120.007 638.43 120.954 640.283 122.237C642.156 123.519 643.632 125.168 644.711 127.184C645.79 129.179 646.33 131.571 646.33 134.361V166H633.992V159.495H633.625C632.872 160.961 631.864 162.254 630.602 163.374C629.34 164.473 627.823 165.338 626.052 165.969C624.28 166.58 622.234 166.886 619.913 166.886ZM623.639 157.907C625.553 157.907 627.243 157.53 628.709 156.777C630.174 156.003 631.325 154.965 632.16 153.662C632.994 152.359 633.412 150.883 633.412 149.234V144.256C633.004 144.52 632.445 144.765 631.732 144.989C631.04 145.192 630.256 145.386 629.38 145.569C628.505 145.732 627.629 145.884 626.754 146.027C625.878 146.149 625.084 146.261 624.372 146.363C622.845 146.587 621.511 146.943 620.371 147.432C619.231 147.92 618.345 148.582 617.714 149.417C617.083 150.231 616.767 151.249 616.767 152.471C616.767 154.242 617.409 155.596 618.691 156.533C619.995 157.449 621.644 157.907 623.639 157.907ZM667.133 148.837L684.022 119.091H696.848V166H684.449V136.163L667.622 166H654.703V119.091H667.133V148.837ZM681.792 102.722H690.862C690.842 106.427 689.468 109.41 686.74 111.67C684.032 113.93 680.367 115.06 675.745 115.06C671.103 115.06 667.428 113.93 664.72 111.67C662.013 109.41 660.659 106.427 660.659 102.722H669.668C669.647 104.126 670.095 105.389 671.012 106.509C671.948 107.628 673.526 108.188 675.745 108.188C677.903 108.188 679.451 107.638 680.387 106.539C681.324 105.44 681.792 104.167 681.792 102.722ZM700.847 129.322V119.091H743.358V129.322H728.241V166H715.842V129.322H700.847ZM761.955 148.837L778.843 119.091H791.67V166H779.271V136.163L762.443 166H749.525V119.091H761.955V148.837ZM178.296 262.916C173.491 262.916 169.358 261.898 165.896 259.862C162.456 257.806 159.809 254.955 157.956 251.311C156.124 247.667 155.208 243.473 155.208 238.729C155.208 233.924 156.134 229.709 157.987 226.085C159.86 222.441 162.517 219.601 165.958 217.565C169.398 215.508 173.491 214.48 178.234 214.48C182.327 214.48 185.91 215.223 188.984 216.71C192.059 218.196 194.492 220.283 196.284 222.97C198.075 225.658 199.063 228.813 199.246 232.438H186.969C186.623 230.096 185.707 228.213 184.22 226.788C182.754 225.342 180.83 224.619 178.448 224.619C176.433 224.619 174.672 225.169 173.165 226.268C171.679 227.348 170.518 228.925 169.683 231.002C168.849 233.079 168.431 235.593 168.431 238.545C168.431 241.538 168.838 244.083 169.653 246.18C170.488 248.277 171.658 249.876 173.165 250.975C174.672 252.075 176.433 252.624 178.448 252.624C179.935 252.624 181.268 252.319 182.449 251.708C183.65 251.097 184.638 250.212 185.411 249.051C186.205 247.87 186.725 246.455 186.969 244.806H199.246C199.042 248.389 198.065 251.545 196.314 254.273C194.583 256.981 192.191 259.099 189.137 260.626C186.083 262.153 182.469 262.916 178.296 262.916ZM205.856 262V215.091H246.87V262H234.441V225.322H218.133V262H205.856ZM276.912 262.916C272.087 262.916 267.933 261.939 264.452 259.984C260.99 258.009 258.323 255.22 256.45 251.616C254.577 247.992 253.641 243.707 253.641 238.759C253.641 233.934 254.577 229.699 256.45 226.055C258.323 222.41 260.96 219.57 264.36 217.534C267.78 215.498 271.791 214.48 276.393 214.48C279.487 214.48 282.368 214.979 285.035 215.977C287.723 216.954 290.064 218.43 292.06 220.405C294.075 222.38 295.643 224.864 296.763 227.857C297.883 230.829 298.442 234.311 298.442 238.301V241.874H258.832V233.812H286.196C286.196 231.939 285.789 230.279 284.974 228.834C284.16 227.388 283.03 226.258 281.584 225.444C280.159 224.609 278.5 224.192 276.606 224.192C274.632 224.192 272.881 224.65 271.354 225.566C269.847 226.462 268.666 227.673 267.811 229.2C266.956 230.707 266.518 232.387 266.498 234.239V241.905C266.498 244.226 266.925 246.231 267.78 247.921C268.656 249.611 269.888 250.914 271.476 251.83C273.064 252.746 274.947 253.205 277.126 253.205C278.571 253.205 279.895 253.001 281.096 252.594C282.297 252.187 283.325 251.576 284.18 250.761C285.035 249.947 285.687 248.949 286.135 247.768L298.168 248.562C297.557 251.454 296.305 253.978 294.411 256.136C292.538 258.274 290.115 259.944 287.143 261.145C284.191 262.326 280.78 262.916 276.912 262.916ZM346.227 215.091V253.021H353.71V277.087H341.066V262H305.212V215.091H317.642V251.769H333.95V215.091H346.227ZM372.444 244.837L389.332 215.091H402.159V262H389.76V232.163L372.932 262H360.014V215.091H372.444V244.837ZM424.245 262.886C421.252 262.886 418.585 262.366 416.243 261.328C413.902 260.269 412.049 258.712 410.685 256.656C409.341 254.579 408.669 251.993 408.669 248.898C408.669 246.292 409.148 244.104 410.105 242.332C411.062 240.561 412.365 239.136 414.014 238.057C415.663 236.978 417.536 236.163 419.633 235.614C421.75 235.064 423.97 234.677 426.291 234.453C429.019 234.168 431.218 233.903 432.887 233.659C434.557 233.394 435.768 233.008 436.522 232.499C437.275 231.99 437.652 231.236 437.652 230.239V230.055C437.652 228.121 437.041 226.625 435.819 225.566C434.618 224.507 432.908 223.978 430.688 223.978C428.347 223.978 426.484 224.497 425.1 225.536C423.715 226.554 422.799 227.836 422.351 229.384L410.318 228.406C410.929 225.556 412.13 223.092 413.922 221.016C415.714 218.919 418.025 217.31 420.855 216.19C423.705 215.05 427.003 214.48 430.75 214.48C433.356 214.48 435.85 214.786 438.232 215.396C440.634 216.007 442.762 216.954 444.615 218.237C446.488 219.519 447.964 221.168 449.043 223.184C450.122 225.179 450.661 227.571 450.661 230.361V262H438.323V255.495H437.957C437.204 256.961 436.196 258.254 434.933 259.374C433.671 260.473 432.154 261.338 430.383 261.969C428.612 262.58 426.566 262.886 424.245 262.886ZM427.97 253.907C429.884 253.907 431.574 253.53 433.04 252.777C434.506 252.003 435.656 250.965 436.491 249.662C437.326 248.359 437.743 246.883 437.743 245.234V240.256C437.336 240.52 436.776 240.765 436.063 240.989C435.371 241.192 434.587 241.386 433.712 241.569C432.836 241.732 431.961 241.884 431.085 242.027C430.21 242.149 429.416 242.261 428.703 242.363C427.176 242.587 425.843 242.943 424.703 243.432C423.563 243.92 422.677 244.582 422.046 245.417C421.415 246.231 421.099 247.249 421.099 248.471C421.099 250.242 421.74 251.596 423.023 252.533C424.326 253.449 425.975 253.907 427.97 253.907ZM456.286 262L456.225 251.678H457.783C458.882 251.678 459.829 251.413 460.623 250.884C461.437 250.334 462.109 249.448 462.639 248.227C463.168 247.005 463.585 245.386 463.891 243.371C464.196 241.335 464.4 238.83 464.501 235.858L465.265 215.091H500.935V262H488.536V225.322H476.962L476.229 239.645C476.046 243.574 475.567 246.954 474.793 249.784C474.04 252.614 472.992 254.935 471.648 256.747C470.304 258.539 468.685 259.862 466.792 260.717C464.899 261.572 462.7 262 460.195 262H456.286ZM521.731 244.837L538.619 215.091H551.446V262H539.047V232.163L522.22 262H509.301V215.091H521.731V244.837ZM581.35 262.916C576.545 262.916 572.412 261.898 568.951 259.862C565.51 257.806 562.863 254.955 561.011 251.311C559.178 247.667 558.262 243.473 558.262 238.729C558.262 233.924 559.188 229.709 561.041 226.085C562.914 222.441 565.571 219.601 569.012 217.565C572.453 215.508 576.545 214.48 581.289 214.48C585.381 214.48 588.965 215.223 592.039 216.71C595.113 218.196 597.546 220.283 599.338 222.97C601.13 225.658 602.117 228.813 602.3 232.438H590.023C589.677 230.096 588.761 228.213 587.275 226.788C585.809 225.342 583.885 224.619 581.503 224.619C579.487 224.619 577.726 225.169 576.219 226.268C574.733 227.348 573.573 228.925 572.738 231.002C571.903 233.079 571.486 235.593 571.486 238.545C571.486 241.538 571.893 244.083 572.707 246.18C573.542 248.277 574.713 249.876 576.219 250.975C577.726 252.075 579.487 252.624 581.503 252.624C582.989 252.624 584.323 252.319 585.503 251.708C586.705 251.097 587.692 250.212 588.466 249.051C589.26 247.87 589.779 246.455 590.023 244.806H602.3C602.097 248.389 601.119 251.545 599.368 254.273C597.638 256.981 595.246 259.099 592.192 260.626C589.138 262.153 585.524 262.916 581.35 262.916ZM605.711 225.322V215.091H648.222V225.322H633.105V262H620.706V225.322H605.711ZM673.904 262.916C669.16 262.916 665.058 261.908 661.597 259.893C658.156 257.857 655.499 255.027 653.626 251.403C651.753 247.758 650.816 243.534 650.816 238.729C650.816 233.883 651.753 229.648 653.626 226.024C655.499 222.38 658.156 219.55 661.597 217.534C665.058 215.498 669.16 214.48 673.904 214.48C678.648 214.48 682.74 215.498 686.181 217.534C689.642 219.55 692.309 222.38 694.183 226.024C696.056 229.648 696.992 233.883 696.992 238.729C696.992 243.534 696.056 247.758 694.183 251.403C692.309 255.027 689.642 257.857 686.181 259.893C682.74 261.908 678.648 262.916 673.904 262.916ZM673.965 252.838C676.123 252.838 677.925 252.227 679.371 251.006C680.816 249.764 681.906 248.074 682.639 245.936C683.392 243.798 683.769 241.365 683.769 238.637C683.769 235.909 683.392 233.476 682.639 231.338C681.906 229.2 680.816 227.51 679.371 226.268C677.925 225.027 676.123 224.406 673.965 224.406C671.787 224.406 669.954 225.027 668.468 226.268C667.002 227.51 665.893 229.2 665.139 231.338C664.406 233.476 664.04 235.909 664.04 238.637C664.04 241.365 664.406 243.798 665.139 245.936C665.893 248.074 667.002 249.764 668.468 251.006C669.954 252.227 671.787 252.838 673.965 252.838ZM703.732 262V215.091H723.735C729.518 215.091 734.088 216.19 737.448 218.389C740.807 220.588 742.487 223.713 742.487 227.765C742.487 230.31 741.54 232.427 739.647 234.117C737.753 235.807 735.127 236.947 731.767 237.538C734.577 237.741 736.969 238.383 738.944 239.462C740.939 240.52 742.456 241.895 743.495 243.585C744.553 245.274 745.083 247.147 745.083 249.204C745.083 251.871 744.37 254.161 742.945 256.075C741.54 257.989 739.474 259.455 736.745 260.473C734.037 261.491 730.729 262 726.82 262H703.732ZM715.856 252.258H726.82C728.632 252.258 730.047 251.83 731.065 250.975C732.103 250.1 732.622 248.909 732.622 247.402C732.622 245.732 732.103 244.419 731.065 243.462C730.047 242.505 728.632 242.027 726.82 242.027H715.856V252.258ZM715.856 234.392H724.01C725.313 234.392 726.423 234.209 727.339 233.842C728.276 233.455 728.988 232.906 729.477 232.193C729.986 231.481 730.24 230.636 730.24 229.658C730.24 228.213 729.66 227.083 728.5 226.268C727.339 225.454 725.751 225.047 723.735 225.047H715.856V234.392Z" fill="#2E3241"/>
<path d="M663.745 274.951C665.33 274.053 667.188 273.064 667.874 272.753C669.504 272.015 673.861 272.352 674.374 273.256C674.594 273.645 675.891 274.02 677.255 274.092C681.655 274.322 682.885 275.451 682.135 278.573C681.529 281.1 681.663 281.37 683.248 280.825C684.847 280.276 684.858 280.333 683.354 281.333C682.42 281.952 681.315 282.33 680.896 282.173C680.479 282.016 680.122 282.387 680.103 282.998C680.064 284.327 680.973 284.45 683.059 283.399C683.905 282.972 685.372 282.71 686.316 282.816C688.371 283.049 696.532 281.538 696.646 280.905C696.69 280.66 697.34 280.486 698.088 280.518C698.838 280.55 700.852 280.286 702.566 279.932C704.543 279.523 705.891 279.499 706.254 279.863C706.614 280.223 707.552 280.185 708.761 279.763C711.928 278.658 720.595 277.599 719.797 278.415C719.331 278.889 719.911 279.06 721.685 278.972C723.302 278.891 725.005 279.301 726.306 280.082C727.992 281.095 728.124 281.57 727.034 282.692C726.301 283.447 725.938 284.302 726.228 284.592C726.517 284.883 726.292 285.1 725.728 285.074C725.163 285.049 724.349 285.569 723.92 286.231C723.49 286.892 722.356 288.194 721.399 289.123C719.538 290.933 719.981 291.812 722.441 291.188C723.274 290.977 724.651 290.784 725.501 290.758C726.351 290.732 727.493 290.413 728.039 290.047C728.584 289.682 729.349 289.574 729.738 289.808C730.125 290.041 731.124 289.996 731.957 289.709C732.791 289.422 734.838 289.173 736.507 289.157C738.176 289.141 739.773 288.862 740.055 288.537C740.339 288.213 741.281 287.979 742.151 288.019C743.02 288.058 745.011 287.748 746.574 287.33C748.137 286.912 749.382 286.758 749.341 286.99C749.299 287.221 750.193 287.063 751.325 286.638C753.418 285.854 765.363 283.989 765.967 284.352C766.589 284.725 764.603 286.282 763.565 286.235C762.994 286.209 762.875 285.956 763.299 285.673C763.724 285.389 763.551 285.134 762.917 285.105C762.284 285.076 761.699 285.414 761.62 285.855C761.526 286.378 760.869 286.507 759.727 286.226C758.718 285.978 758.213 286.032 758.534 286.353C758.84 286.66 758.521 287.245 757.828 287.653C756.798 288.258 756.709 288.224 757.349 287.468C757.782 286.958 757.66 286.518 757.08 286.492C756.5 286.466 755.991 286.636 755.949 286.871C755.851 287.415 749.04 288.38 748.016 287.994C747.592 287.835 746.9 288.06 746.475 288.493C745.485 289.504 747.041 289.561 751.391 288.671C753.297 288.281 755.059 288.082 755.304 288.229C755.547 288.376 753.704 288.893 751.206 289.378C747.926 290.015 746.367 290.079 745.585 289.61C744.804 289.141 744.178 289.173 743.331 289.728C742.685 290.151 742.171 290.249 742.189 289.947C742.207 289.645 741.369 290.103 740.327 290.964C739.284 291.825 738.746 292.11 739.13 291.598C739.515 291.085 739.354 290.644 738.774 290.618C738.194 290.592 737.67 290.847 737.609 291.185C737.539 291.574 736.34 291.627 734.332 291.33C732.59 291.072 730.831 291.085 730.42 291.359C730.009 291.634 730.506 291.896 731.524 291.942C733.416 292.027 736 293.632 735.824 294.613C735.77 294.913 735.122 294.673 734.382 294.08C733.642 293.486 732.485 293.139 731.812 293.308C731.137 293.477 730.627 293.382 730.678 293.096C730.833 292.238 727.787 291.769 724.794 292.189C722.007 292.581 720.734 293.655 722.941 293.755C723.574 293.784 723.865 293.577 723.584 293.297C722.904 292.614 726.92 292.306 728.542 292.916C730.027 293.475 726.327 294.459 723.26 294.32C721.75 294.252 721.638 294.394 722.631 295.117C723.296 295.601 723.652 296.009 723.425 296.024C723.198 296.038 721.529 296.103 719.718 296.167C717.906 296.232 715.996 296.559 715.471 296.893C714.833 297.301 714.368 297.086 714.067 296.244C713.819 295.551 713.183 294.965 712.654 294.941C712.126 294.917 711.87 294.596 712.088 294.227C712.304 293.859 711.682 293.586 710.702 293.621C709.249 293.673 709.042 293.195 709.575 291.018C710.076 288.979 709.795 288.186 708.383 287.65C706.912 287.092 706.506 287.116 706.388 287.773C706.255 288.51 705.535 288.665 703.376 288.42C702.998 288.377 702.229 288.649 701.666 289.026C701.104 289.402 700.005 289.707 699.226 289.704C698.446 289.701 696.944 289.697 695.888 289.696C694.833 289.693 693.896 290.089 693.809 290.573C693.689 291.241 692.873 291.361 690.427 291.066C688.418 290.824 687.161 290.918 687.089 291.315C686.936 292.168 681.738 293.044 679.745 292.553C678.87 292.338 678.114 292.393 678.063 292.675C678.012 292.958 677.235 293.156 676.337 293.115C675.439 293.074 674.756 292.753 674.819 292.401C674.882 292.049 673.76 291.425 672.324 291.015C670.18 290.404 669.688 290.414 669.568 291.077C669.488 291.522 670.158 291.918 671.056 291.959C671.955 291.999 672.646 292.278 672.592 292.579C672.454 293.343 667.733 293.047 666.296 292.184C664.612 291.172 664.95 290.584 667.173 290.666C668.835 290.726 668.814 290.644 667.013 290.026C664.148 289.045 664.139 289.038 665.064 288.42C665.634 288.038 666.498 288.07 667.874 288.523C669.478 289.052 669.768 289.012 669.374 288.317C669.021 287.694 667.27 287.384 663.015 287.191C656.414 286.893 655.374 286.943 655.659 287.547C655.767 287.779 654.603 287.912 653.071 287.842C651.539 287.773 650.525 287.958 650.819 288.253C652.039 289.476 643.91 289.936 641.525 288.778C640.343 288.205 640.161 288.304 640.498 289.338C640.817 290.315 640.446 290.574 638.832 290.501C637.691 290.449 636.8 290.169 636.852 289.878C636.904 289.588 636.268 289.446 635.438 289.564C633.678 289.814 632.131 288.832 630.946 286.712C630.253 285.474 630.377 285.273 631.635 285.582C632.477 285.789 633.21 285.715 633.263 285.418C633.452 284.368 627.972 284.072 625.328 284.989C622.84 285.853 622.826 285.888 624.924 286.009C626.71 286.112 626.792 286.212 625.382 286.575C624.113 286.901 623.317 286.658 622.321 285.639L620.977 284.263L619.542 285.399C618.587 286.157 617.273 286.451 615.605 286.279C612.952 286.006 609.631 286.817 610.369 287.558C611.075 288.266 605.024 288.383 598.979 287.778C595.204 287.4 592.807 287.424 591.566 287.852C590.068 288.369 589.596 288.348 588.99 287.74C588.467 287.215 587.995 287.163 587.394 287.565C586.113 288.421 583.268 288.113 581.786 286.957C580.559 286.002 580.509 286.006 581.021 287.019C581.423 287.814 581.17 288.006 580.071 287.739C575.649 286.667 573.803 286.433 573.713 286.933C573.658 287.238 570.845 287.347 567.357 287.177C563.915 287.01 558.13 286.907 554.5 286.95C550.87 286.991 545.694 286.93 542.998 286.812C540.302 286.695 537.399 286.838 536.546 287.13C535.605 287.451 534.741 287.446 534.353 287.116C533.34 286.258 525.442 286.063 525.92 286.907C526.403 287.762 517.03 287.493 516.167 286.628C515.864 286.325 514.872 286.183 513.963 286.312C513.034 286.444 512.365 286.238 512.437 285.84C512.508 285.441 511.396 285.658 509.886 286.336C507.514 287.402 507.185 287.427 507.01 286.556C506.846 285.736 506.512 285.676 505.012 286.193C503.097 286.854 498.539 286.951 487.057 286.575C483.155 286.447 479.657 286.513 479.283 286.723C478.91 286.932 473.586 287.004 467.454 286.883C457.77 286.691 456.325 286.549 456.46 285.798C456.601 285.011 456.446 285.003 454.75 285.713C452.751 286.549 450.813 286.678 450.941 285.967C451.065 285.273 444.195 285.242 441.122 285.922C439.009 286.39 438.241 286.378 438.002 285.872C437.771 285.381 436.977 285.391 435.032 285.911C433.035 286.446 431.527 286.456 428.94 285.954C425.202 285.229 423.131 285.427 424.117 286.417C424.516 286.816 424.254 286.859 423.395 286.536C421.56 285.846 416.87 285.406 417.44 285.977C418.153 286.693 413.783 286.871 412.622 286.173C411.906 285.743 411.125 285.713 410.073 286.076C409.24 286.364 406.927 286.469 404.932 286.308C402.883 286.143 401.037 286.293 400.683 286.654C400.266 287.08 399.114 287.11 397.213 286.743C395.162 286.348 393.15 286.46 390.016 287.145C386.377 287.939 385.533 287.962 384.855 287.282C384.174 286.598 383.539 286.562 380.844 287.053C379.082 287.373 375.66 287.666 373.238 287.702C370.816 287.739 368.065 287.93 367.124 288.126C365.297 288.507 355.511 288.894 354.152 288.639C353.704 288.555 353.509 288.26 353.718 287.984C353.952 287.676 353.323 287.64 352.088 287.891C350.983 288.116 349.529 288.172 348.858 288.015C348.187 287.858 347.272 287.974 346.826 288.272C345.626 289.075 343.942 288.845 344.112 287.904C344.193 287.453 343.524 287.051 342.626 287.011C341.728 286.97 340.926 287.305 340.845 287.756C340.711 288.504 338.475 288.776 335.795 288.37C332.106 287.81 325.786 287.546 324.17 287.885C322.91 288.148 322.123 288.045 321.842 287.58C321.573 287.135 321.328 287.2 321.173 287.757C320.984 288.434 319.936 288.562 316.594 288.315C314.211 288.139 312.226 288.19 312.183 288.428C312.102 288.881 307.088 288.338 305.363 287.688C304.768 287.465 304.664 287.616 305.107 288.06C305.671 288.626 305.153 288.709 302.995 288.399C301.422 288.173 299.834 288.19 299.467 288.435C299.1 288.68 297.889 288.84 296.776 288.79C295.664 288.74 294.543 288.94 294.285 289.236C293.979 289.588 292.067 289.527 288.771 289.061C285.996 288.669 283.426 288.473 283.061 288.627C282.694 288.78 281.726 288.924 280.909 288.947C280.091 288.97 278.389 289.103 277.126 289.243C275.574 289.415 274.548 289.18 273.958 288.518C273.171 287.634 272.995 287.649 272.138 288.672C271.374 289.584 270.519 289.733 267.753 289.435C265.864 289.231 260.554 289.39 255.954 289.788C251.354 290.187 245.37 290.537 242.655 290.568C239.94 290.598 236.773 290.825 235.618 291.071C234.462 291.317 232.834 291.35 231.998 291.144C230.599 290.799 220.11 291.884 215.741 292.825C214.714 293.046 212.863 293.044 211.625 292.821C210.389 292.597 209.33 292.671 209.274 292.985C209.218 293.299 206.323 293.601 202.841 293.658C199.36 293.715 196.236 293.911 195.902 294.094C194.544 294.836 186.467 295.314 185.28 294.722C184.457 294.312 183.852 294.352 183.364 294.852C182.971 295.253 181.018 295.669 179.025 295.777C177.031 295.885 174.573 296.272 173.562 296.637C170.243 297.836 165.277 298.102 160.747 297.324C155.437 296.411 155.354 296.367 157.219 295.426C158.172 294.946 158.311 294.636 157.588 294.604C156.952 294.575 156.083 294.783 155.659 295.067C154.371 295.929 152.808 295.558 152.073 294.217C151.639 293.425 151.837 292.828 152.598 292.631C153.429 292.416 153.415 292.023 152.556 291.397C151.864 290.891 150.892 290.579 150.397 290.703C148.722 291.124 148.607 289.376 150.245 288.403C151.553 287.626 151.639 287.241 150.68 286.441C150.025 285.895 149.14 285.593 148.715 285.771C148.29 285.949 147.998 285.786 148.066 285.408C148.232 284.483 154.395 281.793 155.444 282.187C155.902 282.36 156.868 281.893 157.589 281.151C158.704 280.003 159.573 279.832 163.399 280.005C166.825 280.16 167.791 280.018 167.446 279.411C167.082 278.765 167.638 278.738 170.367 279.268C174.511 280.072 174.275 280.066 174.4 279.369C174.458 279.051 173.987 278.92 173.355 279.079C172.723 279.237 172.295 278.867 172.405 278.256C172.579 277.287 172.952 277.23 175.322 277.809C176.816 278.174 178.482 278.362 179.022 278.227C179.564 278.091 179.842 278.473 179.642 279.076C179.234 280.303 177.97 280.477 177.318 279.396C177.011 278.886 176.835 278.869 176.689 279.335C176.406 280.238 178.013 280.733 180.213 280.421C181.233 280.275 181.872 279.808 181.631 279.382C181.39 278.956 181.713 278.631 182.349 278.66C182.985 278.689 183.673 279.213 183.877 279.824C184.081 280.435 184.723 280.816 185.304 280.671C185.886 280.525 187.895 280.258 189.77 280.078C192.686 279.798 192.969 279.857 191.722 280.485C190.548 281.077 190.609 281.235 192.032 281.3C193.003 281.344 193.883 280.95 193.986 280.425C194.131 279.694 194.36 279.65 194.965 280.24C195.592 280.851 195.935 280.825 196.634 280.111C197.308 279.423 198.289 279.327 200.808 279.7C203.484 280.097 204.24 279.994 204.843 279.154C205.458 278.298 205.91 278.244 207.469 278.836C208.506 279.229 209.075 279.737 208.736 279.964C207.894 280.527 209.507 280.539 211.613 279.984C212.765 279.68 212.888 279.505 211.982 279.458C209.807 279.347 210.581 278.442 213.026 278.237C214.253 278.134 214.967 278.244 214.611 278.481C214.255 278.719 214.407 279.079 214.947 279.282C215.486 279.486 216.486 279.243 217.167 278.744C218.337 277.886 218.519 277.899 220.487 278.968C221.632 279.59 222.617 279.837 222.674 279.517C222.732 279.196 224.769 278.857 227.201 278.762C229.633 278.668 231.663 278.366 231.712 278.092C231.762 277.818 233.056 277.651 234.588 277.72C236.168 277.792 237.042 278.07 236.604 278.362C235.381 279.18 237.792 279.055 239.849 278.194C240.88 277.763 241.665 277.684 241.605 278.018C241.526 278.458 242.144 278.484 243.878 278.115C245.187 277.836 246.495 277.751 246.787 277.926C247.431 278.313 249.925 277.319 250.991 276.251C251.435 275.805 251.713 276.176 251.637 277.115C251.523 278.544 251.655 278.622 252.638 277.711C253.261 277.134 253.745 276.997 253.714 277.406C253.673 277.935 254.546 278.09 256.714 277.938C258.981 277.78 259.324 277.849 258.038 278.205C256.55 278.618 256.573 278.699 258.209 278.78C259.256 278.832 260.16 278.613 260.217 278.292C260.278 277.958 261.225 277.899 262.438 278.154C263.601 278.399 264.591 278.391 264.636 278.137C264.682 277.882 266.24 277.462 268.098 277.203C269.955 276.944 271.435 276.957 271.386 277.231C271.185 278.345 274.246 277.761 275.67 276.414C276.511 275.619 276.874 275.469 276.477 276.081C275.846 277.052 276.175 277.181 279.079 277.099C281.232 277.039 282.361 277.242 282.283 277.674C282.217 278.042 283.231 277.806 284.537 277.151C286.684 276.072 286.896 276.058 286.76 276.999C286.624 277.938 286.854 277.922 289.116 276.831L291.624 275.621L293.476 277.005C294.495 277.765 295.416 278.241 295.524 278.061C295.632 277.881 295.887 277.493 296.09 277.2C296.294 276.906 296.553 276.497 296.666 276.29C296.779 276.083 297.406 276.235 298.059 276.628C299.487 277.486 302.041 277.681 302.174 276.941C302.227 276.651 301.509 276.521 300.58 276.653C299.65 276.785 298.929 276.674 298.978 276.405C299.026 276.137 300.052 275.925 301.258 275.933C302.511 275.943 303.39 276.286 303.309 276.735C303.232 277.166 303.652 277.578 304.242 277.651C307.301 278.024 308.031 277.948 308.158 277.241C308.235 276.815 309.05 276.4 309.971 276.318C311.458 276.184 311.451 276.224 309.907 276.674C307.56 277.356 309.287 277.408 311.943 276.734C313.588 276.317 314.78 276.422 317.321 277.208C319.117 277.764 320.876 278.025 321.229 277.788C321.583 277.552 321.279 277.207 320.554 277.02C319.724 276.808 319.911 276.697 321.059 276.721C322.061 276.743 323.032 277.077 323.216 277.463C323.467 277.988 323.971 278.03 325.199 277.628C326.105 277.332 328.061 277.206 329.545 277.349C331.028 277.492 333.931 277.307 335.994 276.937C338.807 276.435 340.031 276.437 340.878 276.945C342.473 277.904 343.724 277.855 343.909 276.827C344.011 276.258 344.641 276.091 345.698 276.351C346.72 276.603 347.094 276.517 346.7 276.121C346.262 275.682 347.167 275.661 349.674 276.054C351.656 276.364 353.403 276.842 353.555 277.117C353.709 277.392 354.285 277.504 354.836 277.365C355.386 277.227 355.609 276.712 355.33 276.22C354.898 275.456 355.16 275.435 357.119 276.081C358.915 276.673 359.807 276.702 361.21 276.219C362.695 275.706 363.166 275.782 363.95 276.661C364.847 277.667 365.02 277.659 367.192 276.507C368.456 275.838 369.292 275.622 369.054 276.028C368.815 276.433 369.212 276.905 369.935 277.076C370.66 277.248 371.299 277.122 371.358 276.797C371.417 276.469 373.438 276.295 375.892 276.406C378.326 276.516 381.374 276.381 382.664 276.107C383.993 275.824 384.68 275.828 384.249 276.116C383.831 276.395 384.405 276.79 385.523 276.992C387.01 277.26 387.429 277.131 387.078 276.51C386.681 275.808 386.973 275.785 388.765 276.375C390.19 276.845 391.196 276.912 391.704 276.572C392.13 276.288 394.38 276.141 396.705 276.246C399.03 276.351 401.279 276.205 401.703 275.922C402.797 275.19 406.455 275.453 406.855 276.293C407.104 276.816 407.61 276.858 408.837 276.458C410.735 275.839 416.669 275.251 418.24 275.527C421.401 276.082 427.407 276.438 427.472 276.074C427.514 275.842 429.009 275.769 430.795 275.913C432.58 276.056 434.082 275.944 434.133 275.663C434.184 275.376 435.16 275.461 436.364 275.857C437.928 276.373 438.925 276.416 440.079 276.018C440.95 275.717 441.884 275.703 442.167 275.987C442.449 276.269 444.3 276.519 446.281 276.543C448.263 276.566 450.541 276.894 451.343 277.272C452.461 277.797 452.64 277.789 452.108 277.239C451.657 276.772 452.109 276.537 453.39 276.569C464.881 276.857 478.383 276.515 479.353 275.912C479.992 275.514 480.234 275.522 480.171 275.939C480.122 276.265 481.796 276.609 483.892 276.704C486.63 276.828 487.757 276.633 487.892 276.013C488.042 275.329 488.292 275.378 489.104 276.251C490.098 277.321 490.173 277.325 491.786 276.404C492.7 275.884 493.393 275.759 493.327 276.127C493.238 276.621 493.789 276.673 495.42 276.325C496.767 276.039 497.844 276.065 498.171 276.393C498.664 276.887 502.756 276.952 506.165 276.518C506.942 276.419 508.757 276.626 510.199 276.978C511.838 277.379 512.853 277.426 512.911 277.103C512.962 276.82 513.631 276.742 514.399 276.931C515.167 277.12 517.115 277.089 518.729 276.862C520.343 276.635 521.784 276.652 521.93 276.899C522.078 277.147 525.066 277.19 528.573 276.996C532.08 276.802 534.913 276.839 534.87 277.077C534.827 277.316 536.059 277.333 537.608 277.115C539.655 276.828 540.414 276.903 540.389 277.392C540.362 277.905 540.514 277.908 541.029 277.404C541.4 277.041 542.127 276.902 542.644 277.097C543.161 277.292 543.62 277.252 543.664 277.009C543.708 276.766 545.83 276.643 548.379 276.737C554.139 276.947 559.307 276.778 561.136 276.32C561.912 276.125 563.244 276.4 564.142 276.94C565.282 277.624 566.125 277.754 567.019 277.38C567.713 277.089 569.379 276.901 570.722 276.962C572.065 277.023 573.478 276.861 573.865 276.602C574.655 276.075 576.606 276.22 578.528 276.95C579.235 277.219 580.411 277.288 581.142 277.105C581.875 276.921 584.154 276.879 586.21 277.011C588.266 277.143 591.49 276.936 593.376 276.55C595.263 276.165 596.43 276.1 595.971 276.407C594.832 277.168 595.93 277.153 598.98 276.365C601.641 275.677 603.837 275.757 608.801 276.722C610.958 277.141 612.331 277.081 613.867 276.502C615.026 276.064 617.004 275.753 618.264 275.81C619.599 275.87 620.925 275.47 621.442 274.852C621.931 274.269 622.816 273.814 623.409 273.841C624.004 273.867 624.105 274.146 623.636 274.46C623.043 274.857 623.596 274.932 625.448 274.707C628.315 274.358 630.608 274.446 635.668 275.1C637.439 275.329 639.258 275.561 639.71 275.616C640.163 275.671 641.194 276.61 642.001 277.702C643.39 279.58 643.578 279.641 645.483 278.823C646.591 278.346 647.319 277.764 647.102 277.527C646.884 277.29 647.226 277.12 647.859 277.148C648.493 277.177 648.946 277.571 648.864 278.024C648.743 278.698 649.115 278.746 650.909 278.291C652.197 277.965 653.014 277.286 652.886 276.65C652.767 276.054 652.948 275.733 653.289 275.939C653.631 276.144 654.583 276.079 655.406 275.795C656.435 275.44 657.519 275.483 658.882 275.932C660.524 276.473 661.354 276.305 663.745 274.951Z" fill="#2E3241"/>
<path d="M614.119 275.897C613.487 276.056 613.017 275.925 613.074 275.607C613.131 275.29 613.668 275.051 614.267 275.078C614.865 275.105 615.336 275.236 615.312 275.368C615.288 275.501 614.752 275.739 614.119 275.897Z" fill="#2E3241"/>
<path d="M774.199 283.413C773.565 283.385 773.09 283.116 773.144 282.815C773.198 282.515 773.458 282.279 773.723 282.291C773.987 282.303 774.461 282.572 774.777 282.889C775.094 283.206 774.833 283.442 774.199 283.413Z" fill="#2E3241"/>
<path d="M768.807 283.681C767.311 283.582 767.391 283.491 769.235 283.189C772.262 282.693 772.3 282.695 771.413 283.287C770.988 283.571 769.816 283.748 768.807 283.681Z" fill="#2E3241"/>
<path d="M611.538 276.388C611.144 276.553 610.201 276.53 609.444 276.337C608.606 276.124 608.888 276.006 610.161 276.037C611.313 276.065 611.932 276.223 611.538 276.388Z" fill="#2E3241"/>
<path d="M587.162 276.605C586.898 276.593 586.424 276.323 586.107 276.006C585.791 275.689 586.052 275.453 586.686 275.482C587.319 275.511 587.795 275.78 587.741 276.08C587.687 276.381 587.427 276.617 587.162 276.605Z" fill="#2E3241"/>
<path d="M420.989 275.143C420.355 275.114 420.182 274.859 420.607 274.575C421.031 274.292 421.593 274.069 421.858 274.081C422.123 274.093 422.294 274.349 422.24 274.649C422.186 274.949 421.622 275.172 420.989 275.143Z" fill="#2E3241"/>
<path d="M373.132 275.73C372.198 275.688 371.781 275.422 372.205 275.138C372.629 274.854 373.437 274.643 374.001 274.669C374.565 274.694 374.981 274.961 374.927 275.261C374.873 275.561 374.065 275.773 373.132 275.73Z" fill="#2E3241"/>
<path d="M350.951 275.82C349.323 275.739 349.298 275.659 350.776 275.27C352.95 274.696 353.073 274.702 352.953 275.368C352.899 275.668 351.998 275.871 350.951 275.82Z" fill="#2E3241"/>
<path d="M736.801 292.941C735.903 292.72 735.187 292.442 735.208 292.325C735.288 291.882 737.318 292.225 737.864 292.773C738.19 293.099 737.737 293.171 736.801 292.941Z" fill="#2E3241"/>
<path d="M340.094 275.151C339.319 275.269 338.094 275.213 337.372 275.028C336.651 274.843 337.285 274.746 338.782 274.814C340.28 274.882 340.87 275.033 340.094 275.151Z" fill="#2E3241"/>
<path d="M327.456 276.688C326.897 276.478 326.481 276.075 326.531 275.792C326.673 275.007 327.422 275.215 327.976 276.193C328.26 276.696 328.038 276.907 327.456 276.688Z" fill="#2E3241"/>
<path d="M725.948 294.981C725.993 294.731 726.908 294.453 727.981 294.362C729.053 294.273 730.058 294.176 730.215 294.148C730.371 294.12 730.459 294.314 730.412 294.579C730.364 294.844 729.322 295.146 728.096 295.249C726.87 295.351 725.903 295.231 725.948 294.981Z" fill="#2E3241"/>
<path d="M279.149 276.433C278.515 276.405 278.342 276.149 278.767 275.866C279.191 275.582 279.753 275.36 280.018 275.372C280.283 275.384 280.454 275.639 280.4 275.939C280.346 276.24 279.782 276.462 279.149 276.433Z" fill="#2E3241"/>
<path d="M243.72 276.814C243.326 276.979 242.382 276.957 241.626 276.763C240.788 276.55 241.07 276.432 242.343 276.463C243.495 276.492 244.114 276.65 243.72 276.814Z" fill="#2E3241"/>
<path d="M196.516 278.475C193.407 278.632 195.046 277.815 198.325 277.573C199.549 277.483 200.776 277.391 201.051 277.368C201.326 277.345 201.005 277.556 200.338 277.835C199.67 278.115 197.949 278.403 196.516 278.475Z" fill="#2E3241"/>
<path d="M202.996 279.334C202.455 279.13 202.354 278.615 202.771 278.19C203.837 277.101 204.419 277.261 204.181 278.579C204.07 279.197 203.537 279.537 202.996 279.334Z" fill="#2E3241"/>
<path d="M164.633 279.51C164.109 279.486 163.79 278.857 163.924 278.112C164.058 277.366 164.573 276.909 165.067 277.095C165.562 277.281 165.881 277.91 165.776 278.493C165.671 279.076 165.156 279.534 164.633 279.51Z" fill="#2E3241"/>
<path d="M156.346 278.438C156.019 278.241 156.19 277.787 156.728 277.427C157.514 276.901 157.771 276.913 158.04 277.484C158.424 278.3 157.232 278.97 156.346 278.438Z" fill="#2E3241"/>
<path d="M160.758 278.554C159.974 278.083 159.358 277.557 159.389 277.385C159.55 276.49 162.243 277.366 162.216 278.305C162.188 279.267 161.998 279.299 160.758 278.554Z" fill="#2E3241"/>
<path d="M187.586 279.296C186.397 279.196 185.455 278.937 185.495 278.719C185.534 278.502 186.539 278.405 187.729 278.504C188.918 278.604 189.86 278.863 189.82 279.081C189.781 279.298 188.776 279.395 187.586 279.296Z" fill="#2E3241"/>
<path d="M150.89 281.916C150.258 282.074 149.787 281.944 149.844 281.626C149.901 281.308 150.438 281.07 151.037 281.097C151.636 281.124 152.107 281.254 152.083 281.387C152.059 281.52 151.522 281.757 150.89 281.916Z" fill="#2E3241"/>
<path d="M816.641 216.756C815.814 216.03 813.332 217.522 812.972 217.742C803.995 229.042 794.998 240.334 786 251.626C796.002 241.215 806.004 230.802 816 220.396C816.189 220.015 817.448 217.475 816.641 216.756ZM813.563 220.45C812.99 219.946 813.016 218.982 813.622 218.287C814.233 217.586 815.183 217.43 815.756 217.932C816.314 218.422 816.288 219.387 815.676 220.089C815.07 220.784 814.12 220.94 813.563 220.45Z" fill="#2E3241"/>
<path d="M800.933 191.742C800.43 197.714 800.984 203.961 803.823 209.336C806.169 213.776 810.007 217.39 814.802 218.971C815.376 219.16 815.622 218.253 815.051 218.065C810.354 216.517 806.66 212.886 804.448 208.509C801.844 203.356 801.39 197.417 801.869 191.744C801.92 191.14 800.984 191.144 800.933 191.742Z" fill="#2E3241"/>
<path d="M815.814 219.571C818.423 219.146 820.353 216.796 819.919 214.105C819.666 212.542 817.824 209.507 815.949 211.129C815.189 211.787 815.045 213.007 814.915 213.93C814.705 215.428 814.659 216.947 814.798 218.454C815.061 221.298 815.941 224.139 817.637 226.461C819.514 229.033 822.206 230.539 825.168 231.557C828.848 232.823 832.693 233.629 836.502 234.394C844.303 235.96 852.305 237.199 859.592 240.565C866.161 243.598 872.079 248.536 874.692 255.48C875.899 258.689 876.803 263.272 875.099 266.463C873.299 269.834 868.641 269.78 865.353 269.671C857.381 269.407 849.768 266.629 842.381 263.846C838.926 262.544 835.472 261.069 831.922 260.053C829.766 259.437 826.813 259.614 826.706 262.497C826.592 265.564 829.73 268.654 831.711 270.647C834.316 273.266 837.268 275.502 839.991 277.991C841.412 279.29 843.234 280.783 844.199 282.474C845.233 284.285 843.768 284.961 842.348 285.538C841.332 285.952 840.298 286.329 839.268 286.707C834.771 288.361 830.201 289.811 825.579 291.076C824.998 291.235 825.244 292.141 825.827 291.981C829.678 290.928 833.495 289.748 837.262 288.423C838.958 287.827 840.645 287.208 842.318 286.553C843.303 286.166 844.465 285.776 845.118 284.881C846.716 282.69 843.43 280.016 842.049 278.65C839.875 276.501 837.477 274.601 835.181 272.589C832.726 270.439 830.244 268.112 828.564 265.276C827.494 263.471 827.062 260.539 830.043 260.641C831.792 260.7 833.647 261.609 835.266 262.19C842.127 264.654 848.86 267.573 855.968 269.27C859.402 270.091 862.925 270.617 866.46 270.63C869.085 270.64 872.102 270.506 874.279 268.841C878.748 265.423 876.821 257.582 874.791 253.34C868.703 240.625 854.024 236.869 841.404 234.396C837.145 233.562 832.869 232.776 828.678 231.631C824.707 230.546 820.624 229.201 818.197 225.63C816.247 222.762 815.513 219.197 815.678 215.765C815.718 214.926 815.788 214.061 815.971 213.239C816.175 212.326 816.082 212.285 817.105 212.195C818.18 212.1 818.408 212.497 818.769 213.444C819.708 215.911 818.06 218.257 815.566 218.662C814.973 218.762 815.223 219.666 815.814 219.571Z" fill="#2E3241"/>
<path d="M853.721 197.245C857.687 190.156 855.175 181.184 848.11 177.205C841.044 173.226 832.102 175.747 828.136 182.835C824.17 189.924 826.682 198.896 833.747 202.875C840.812 206.854 849.755 204.333 853.721 197.245Z" fill="#2E3241" stroke="#2E3241" stroke-width="0.7" stroke-miterlimit="10" stroke-linecap="round" stroke-linejoin="round"/>
<path d="M842.112 200.928C848.092 200.267 852.405 194.869 851.746 188.87C851.088 182.871 845.706 178.544 839.727 179.205C833.748 179.866 829.435 185.264 830.093 191.263C830.752 197.262 836.133 201.589 842.112 200.928Z" stroke="#2E3241" stroke-width="0.7" stroke-miterlimit="10" stroke-linecap="round" stroke-linejoin="round"/>
<path d="M850.265 190.054C850.265 195.227 846.085 199.42 840.929 199.42C835.773 199.42 831.593 195.227 831.593 190.054C831.593 184.881 835.773 180.688 840.929 180.688C846.085 180.688 850.265 184.881 850.265 190.054Z" stroke="#2E3241" stroke-width="0.7" stroke-miterlimit="10" stroke-linecap="round" stroke-linejoin="round"/>
<path d="M838.766 186.945C838.766 187.622 838.219 188.171 837.544 188.171C836.869 188.171 836.321 187.622 836.321 186.945C836.321 186.268 836.868 185.719 837.544 185.719C838.219 185.719 838.766 186.268 838.766 186.945Z" fill="#FAF7F4" stroke="#2E3241" stroke-width="0.7" stroke-miterlimit="10" stroke-linecap="round" stroke-linejoin="round"/>
<path d="M845.536 186.945C845.536 187.622 844.989 188.171 844.314 188.171C843.638 188.171 843.091 187.622 843.091 186.945C843.091 186.268 843.638 185.719 844.314 185.719C844.989 185.719 845.536 186.268 845.536 186.945Z" fill="#FAF7F4" stroke="#2E3241" stroke-width="0.7" stroke-miterlimit="10" stroke-linecap="round" stroke-linejoin="round"/>
<path d="M838.766 193.167C838.766 193.844 838.219 194.393 837.544 194.393C836.869 194.393 836.321 193.844 836.321 193.167C836.321 192.489 836.868 191.94 837.544 191.94C838.219 191.94 838.766 192.489 838.766 193.167Z" fill="#FAF7F4" stroke="#2E3241" stroke-width="0.7" stroke-miterlimit="10" stroke-linecap="round" stroke-linejoin="round"/>
<path d="M845.536 193.167C845.536 193.844 844.989 194.393 844.313 194.393C843.638 194.393 843.091 193.844 843.091 193.167C843.091 192.489 843.638 191.94 844.313 191.94C844.989 191.94 845.536 192.489 845.536 193.167Z" fill="#FAF7F4" stroke="#2E3241" stroke-width="0.7" stroke-miterlimit="10" stroke-linecap="round" stroke-linejoin="round"/>
<path d="M1.06367 162.723C1.97931 166.594 12.4402 167.392 24.413 164.522C36.4053 161.647 45.3867 156.188 44.471 152.317C43.84 149.65 38.6284 148.441 31.5154 148.896L33.0904 155.554C33.3178 156.517 28.9217 158.397 23.2841 159.749C17.6665 161.096 12.8992 161.412 12.6718 160.449L11.0968 153.791C4.54416 156.612 0.432622 160.056 1.06367 162.723Z" fill="#E8BE2B" stroke="#58433E" stroke-width="1.2" stroke-miterlimit="10" stroke-linecap="round" stroke-linejoin="round"/>
<path d="M9.83126 148.437C10.0593 149.399 14.826 149.083 20.4436 147.736C26.0812 146.384 30.4779 144.504 30.2499 143.542C30.0271 142.599 25.2604 142.915 19.6228 144.267C14.0052 145.614 9.60795 147.494 9.83126 148.437Z" fill="#F8ECDA" stroke="#58433E" stroke-width="1.2" stroke-miterlimit="10" stroke-linecap="round" stroke-linejoin="round"/>
<path d="M9.83087 148.437L12.6721 160.45C12.9001 161.413 17.6668 161.097 23.2844 159.75C28.922 158.398 33.3187 156.518 33.0907 155.555L30.2495 143.542C30.4775 144.505 26.0808 146.385 20.4432 147.736C14.825 149.084 10.0583 149.4 9.83087 148.437Z" fill="#F8ECDA" stroke="#58433E" stroke-width="1.2" stroke-miterlimit="10" stroke-linecap="round" stroke-linejoin="round"/>
<path d="M1.06354 162.723L12.5285 211.197C13.1595 213.865 18.3711 215.073 25.4835 214.618C28.6352 214.414 32.1923 213.879 35.8778 212.995C39.5834 212.107 42.9784 210.976 45.9027 209.723C52.4559 206.902 56.5669 203.458 55.9364 200.791L44.4715 152.317C45.3871 156.188 36.4058 161.647 24.4135 164.522C12.4407 167.392 1.97918 166.594 1.06354 162.723Z" fill="#E8BE2B" stroke="#58433E" stroke-width="1.2" stroke-miterlimit="10" stroke-linecap="round" stroke-linejoin="round"/>
<path d="M25.4842 214.619L27.1016 221.458C27.3243 222.4 32.0916 222.084 37.7092 220.737C43.3468 219.386 47.7435 217.506 47.5202 216.563L45.9028 209.724C42.9785 210.976 39.5835 212.108 35.8779 212.996C32.193 213.88 28.6359 214.415 25.4842 214.619Z" fill="#F8ECDA" stroke="#58433E" stroke-width="1.2" stroke-miterlimit="10" stroke-linecap="round" stroke-linejoin="round"/>
<path d="M46.1271 159.317C46.1271 159.317 36.1806 175.595 4.82031 178.604" stroke="#58433E" stroke-width="1.2" stroke-miterlimit="10" stroke-linecap="round" stroke-linejoin="round"/>
<path d="M48.792 170.588C48.792 170.588 35.051 185.245 8.04553 188.473C8.04553 188.473 25.4992 209.165 55.9362 200.793" stroke="#58433E" stroke-width="1.2" stroke-miterlimit="10" stroke-linecap="round" stroke-linejoin="round"/>
<path d="M24.5493 184.752C24.5493 184.752 38.1537 192.978 53.3548 189.875" stroke="#58433E" stroke-width="1.2" stroke-miterlimit="10" stroke-linecap="round" stroke-linejoin="round"/>
<path d="M881.704 38.0215L886.731 52.3145C887.25 53.7883 888.123 55.1107 889.273 56.1639L891.3 58.0203L864.02 67.6972L864.393 64.9247C864.593 63.4331 864.438 61.9151 863.939 60.4961L858.246 44.3114C856.634 39.7295 851.629 37.327 847.066 38.9455L836.341 42.7498C832.287 44.1881 829.39 47.8011 828.862 52.0876L828.674 53.6439C828.485 55.1268 827.491 56.3781 826.085 56.8768L820.766 58.7634L808.512 23.925L813.831 22.0384C815.237 21.5397 816.793 21.8864 817.868 22.9209L818.988 24.0132C822.086 27.0012 826.589 27.9891 830.644 26.551L846.654 20.8717C848.3 20.2878 849.315 18.1548 848.734 16.502L871.401 7.80762C871.717 8.70514 872.293 10.398 873.034 10.9356C873.764 11.477 874.661 11.7987 875.606 11.8332L877.793 11.9188L883.949 29.4202C882.733 30.492 881.894 31.8727 881.515 33.3736C881.11 34.8711 881.164 36.4891 881.704 38.0215Z" fill="#2E3241" stroke="#2E3241" stroke-width="1.8271" stroke-miterlimit="10" stroke-linecap="round" stroke-linejoin="round"/>
<path d="M859.886 2.37623C860.125 3.05656 858.605 4.21464 856.495 4.96307C854.381 5.71277 852.474 5.77051 852.235 5.09017C852.07 4.62111 852.748 3.92068 853.879 3.28539L854.291 4.45615C854.35 4.62534 855.206 4.47645 856.2 4.12391C857.19 3.77264 857.949 3.34861 857.89 3.17943L857.478 2.00868C858.755 1.7898 859.721 1.90716 859.886 2.37623Z" fill="#E8BE2B" stroke="#2E3241" stroke-width="1.8271" stroke-miterlimit="10" stroke-linecap="round" stroke-linejoin="round"/>
<path d="M857.147 1.06773C857.206 1.23691 856.447 1.66094 855.457 2.01221C854.463 2.36453 853.608 2.51364 853.548 2.34445C853.49 2.17865 854.249 1.75463 855.242 1.40209C856.233 1.05082 857.088 0.901928 857.147 1.06773Z" fill="#E5D4C6" stroke="#2E3241" stroke-width="1.8271" stroke-miterlimit="10" stroke-linecap="round" stroke-linejoin="round"/>
<path d="M857.147 1.06738L857.89 3.17945C857.949 3.34863 857.19 3.77265 856.2 4.12392C855.206 4.47625 854.35 4.62536 854.291 4.45617L853.548 2.34411C853.608 2.51329 854.463 2.3644 855.457 2.01186C856.447 1.66059 857.207 1.23657 857.147 1.06738Z" fill="#E5D4C6" stroke="#2E3241" stroke-width="1.8271" stroke-miterlimit="10" stroke-linecap="round" stroke-linejoin="round"/>
<path d="M862.881 11.1868C862.907 11.0849 862.915 10.987 862.884 10.8994L859.886 2.37695C860.125 3.0575 858.605 4.21536 856.495 4.96379C854.381 5.71349 852.474 5.77123 852.235 5.09089L855.233 13.6134C855.264 13.7009 855.331 13.7722 855.415 13.8356L862.881 11.1868Z" fill="#E8BE2B" stroke="#2E3241" stroke-width="1.8271" stroke-miterlimit="10" stroke-linecap="round" stroke-linejoin="round"/>
<path d="M853.275 8.04596C853.275 8.04596 857.281 8.51652 860.926 5.33203" stroke="#2E3241" stroke-width="1.8271" stroke-miterlimit="10" stroke-linecap="round" stroke-linejoin="round"/>
<path d="M854.142 10.5118C854.142 10.5118 858.148 10.9823 861.793 7.79785" stroke="#2E3241" stroke-width="1.8271" stroke-miterlimit="10" stroke-linecap="round" stroke-linejoin="round"/>
<path d="M808.512 23.9248L820.766 58.7632L819.382 59.2542C818.51 59.5636 817.536 59.0963 817.229 58.2207L806.095 26.5675C805.787 25.6919 806.256 24.7253 807.128 24.4159L808.512 23.9248Z" fill="#8387A3" stroke="#2E3241" stroke-width="1.8271" stroke-miterlimit="10" stroke-linecap="round" stroke-linejoin="round"/>
<path d="M887.615 31.4037C886.155 31.9217 884.553 31.1529 884.037 29.6867L877.058 9.84576C876.543 8.37956 877.308 6.77124 878.768 6.25332C880.228 5.73541 881.83 6.50415 882.345 7.97035L889.324 27.8113C889.84 29.2775 889.075 30.8858 887.615 31.4037Z" fill="#8387A3" stroke="#2E3241" stroke-width="1.8271" stroke-miterlimit="10" stroke-linecap="round" stroke-linejoin="round"/>
<path d="M870.954 24.4002C872.277 28.1597 870.314 32.284 866.57 33.6119C862.826 34.94 858.72 32.9688 857.397 29.209C856.075 25.4495 858.038 21.3252 861.781 19.9971C865.525 18.6692 869.632 20.6404 870.954 24.4002Z" fill="#E8BE2B" stroke="#2E3241" stroke-width="1.8271" stroke-miterlimit="10" stroke-linecap="round" stroke-linejoin="round"/>
<path d="M866.257 31.2834C868.723 30.12 869.784 27.1689 868.625 24.692C867.467 22.215 864.528 21.1501 862.061 22.3135C859.595 23.4768 858.535 26.4279 859.693 28.9049C860.851 31.3819 863.79 32.4468 866.257 31.2834Z" fill="#E5D4C6" stroke="#2E3241" stroke-width="1.8271" stroke-miterlimit="10" stroke-linecap="round" stroke-linejoin="round"/>
<path d="M810.525 18.9559L809.041 19.4824L810.369 23.2566L811.853 22.7301L810.525 18.9559Z" fill="#E8BE2B" stroke="#2E3241" stroke-width="1.8271" stroke-miterlimit="10" stroke-linecap="round" stroke-linejoin="round"/>
<path d="M852.781 6.64453C852.781 6.64453 847.104 10.5559 840.14 12.706C833.176 14.8561 815.258 14.9338 810.522 18.9673" stroke="#2E3241" stroke-width="1.8271" stroke-miterlimit="10" stroke-linecap="round" stroke-linejoin="round"/>
<path d="M863.227 24.1094L865.158 29.5998" stroke="#2E3241" stroke-width="1.8271" stroke-miterlimit="10" stroke-linecap="round" stroke-linejoin="round"/>
<path d="M875.212 43.4599C876.11 46.0133 874.777 48.8142 872.234 49.7159C869.692 50.6179 866.902 49.2792 866.004 46.7258C865.106 44.1726 866.439 41.3717 868.982 40.4698C871.525 39.5678 874.314 40.9067 875.212 43.4599Z" fill="#E8BE2B" stroke="#2E3241" stroke-width="1.8271" stroke-miterlimit="10" stroke-linecap="round" stroke-linejoin="round"/>
<path d="M873.768 43.9719C874.384 45.7244 873.469 47.6468 871.724 48.2658C869.979 48.8848 868.065 47.9659 867.449 46.2135C866.832 44.4612 867.747 42.5386 869.492 41.9196C871.237 41.3006 873.151 42.2193 873.768 43.9719Z" fill="#E5D4C6" stroke="#2E3241" stroke-width="1.8271" stroke-miterlimit="10" stroke-linecap="round" stroke-linejoin="round"/>
<path d="M869.964 43.2617L871.276 46.9908" stroke="#2E3241" stroke-width="1.8271" stroke-miterlimit="10" stroke-linecap="round" stroke-linejoin="round"/>
<path d="M900.254 62.2547L822.22 89.9353C821.637 90.1419 820.999 89.8353 820.793 89.2505L819.22 84.7794C819.015 84.1946 819.32 83.5532 819.902 83.3466L897.937 55.666C898.519 55.4594 899.158 55.766 899.363 56.3508L900.936 60.8219C901.141 61.4067 900.836 62.0481 900.254 62.2547Z" fill="#8387A3" stroke="#2E3241" stroke-width="1.8271" stroke-miterlimit="10" stroke-linecap="round" stroke-linejoin="round"/>
<path d="M819.642 85.9772L899.785 57.5488" stroke="#2E3241" stroke-width="1.8271" stroke-miterlimit="10" stroke-linecap="round" stroke-linejoin="round"/>
<path d="M824.386 57.4689L821.882 58.3574L825.747 69.3437L828.251 68.4552L824.386 57.4689Z" fill="#E8BE2B" stroke="#2E3241" stroke-width="1.8271" stroke-miterlimit="10" stroke-linecap="round" stroke-linejoin="round"/>
<path d="M827.125 69.2842L830.5 78.8787" stroke="#2E3241" stroke-width="1.8271" stroke-miterlimit="10" stroke-linecap="round" stroke-linejoin="round"/>
</svg>
