<svg width="729" height="325" viewBox="0 0 729 325" fill="none" xmlns="http://www.w3.org/2000/svg">
<path d="M129 87.7578C129.72 79.3984 132.31 71.1637 133.893 62.929C134.469 59.9346 134.756 56.9402 135.044 53.9458C135.188 52.5733 134.037 49.3294 135.62 49.7037C136.915 49.9532 138.642 53.4467 139.361 54.4448C142.527 59.3108 144.83 64.551 147.42 69.6665C147.852 70.5399 149.003 74.5324 149.723 74.7819C151.018 75.281 154.615 72.2866 155.479 71.538C158.645 68.5436 164.545 56.6906 166.848 55.5677C167.567 55.1934 169.87 57.9383 170.301 58.4374C172.748 61.8061 173.755 66.2978 174.475 70.1656C174.762 71.6628 174.906 73.16 174.762 74.7819C174.762 74.9067 174.762 76.0296 174.762 76.0296C183.829 76.6534 188.721 64.4262 192.463 63.5528C193.614 63.3033 195.341 68.294 195.485 69.0427C196.061 71.2885 197.212 86.6349 196.061 88.1321C193.758 91.1265 184.836 89.255 181.382 89.1302C167.423 88.2568 153.32 88.5064 139.361 88.7559" stroke="#2E3241" stroke-width="7.33137" stroke-miterlimit="1.5" stroke-linecap="round"/>
<path d="M133.03 88.6313C132.022 88.6313 131.159 88.5066 130.151 88.3818" stroke="#2E3241" stroke-width="7.33137" stroke-miterlimit="1.5" stroke-linecap="round"/>
<path d="M143.966 27.6201C145.981 29.8659 148.14 31.987 149.435 34.6071" stroke="#2E3241" stroke-width="7.33137" stroke-miterlimit="1.5" stroke-linecap="round"/>
<path d="M166.272 25C166.704 26.7467 167.279 28.4935 167.567 30.2403" stroke="#2E3241" stroke-width="7.33137" stroke-miterlimit="1.5" stroke-linecap="round"/>
<path d="M191.168 27.6201C189.153 30.1155 187.426 32.3613 186.275 35.1062" stroke="#2E3241" stroke-width="7.33137" stroke-miterlimit="1.5" stroke-linecap="round"/>
<path d="M206.422 33.6084C204.695 35.8542 204.839 35.6047 203.256 38.1" stroke="#2E3241" stroke-width="7.33137" stroke-miterlimit="1.5" stroke-linecap="round"/>
<path d="M186.019 103.455V166H172.948V114.205H147.661V166H134.59V103.455H186.019ZM217.839 166.916C213.095 166.916 208.993 165.908 205.532 163.893C202.091 161.857 199.434 159.027 197.561 155.403C195.688 151.758 194.751 147.534 194.751 142.729C194.751 137.883 195.688 133.648 197.561 130.024C199.434 126.38 202.091 123.55 205.532 121.534C208.993 119.498 213.095 118.48 217.839 118.48C222.583 118.48 226.676 119.498 230.116 121.534C233.577 123.55 236.245 126.38 238.118 130.024C239.991 133.648 240.927 137.883 240.927 142.729C240.927 147.534 239.991 151.758 238.118 155.403C236.245 159.027 233.577 161.857 230.116 163.893C226.676 165.908 222.583 166.916 217.839 166.916ZM217.9 156.838C220.059 156.838 221.86 156.227 223.306 155.006C224.752 153.764 225.841 152.074 226.574 149.936C227.327 147.798 227.704 145.365 227.704 142.637C227.704 139.909 227.327 137.476 226.574 135.338C225.841 133.2 224.752 131.51 223.306 130.268C221.86 129.027 220.059 128.406 217.9 128.406C215.722 128.406 213.89 129.027 212.403 130.268C210.937 131.51 209.828 133.2 209.074 135.338C208.341 137.476 207.975 139.909 207.975 142.637C207.975 145.365 208.341 147.798 209.074 149.936C209.828 152.074 210.937 153.764 212.403 155.006C213.89 156.227 215.722 156.838 217.9 156.838ZM275.397 151.616L288.102 119.091H297.996L279.703 166H271.06L253.195 119.091H263.059L275.397 151.616ZM260.097 119.091V166H247.667V119.091H260.097ZM291.339 166V119.091H303.616V166H291.339ZM333.153 166.916C328.409 166.916 324.307 165.908 320.846 163.893C317.405 161.857 314.748 159.027 312.875 155.403C311.002 151.758 310.065 147.534 310.065 142.729C310.065 137.883 311.002 133.648 312.875 130.024C314.748 126.38 317.405 123.55 320.846 121.534C324.307 119.498 328.409 118.48 333.153 118.48C337.897 118.48 341.989 119.498 345.43 121.534C348.891 123.55 351.559 126.38 353.432 130.024C355.305 133.648 356.241 137.883 356.241 142.729C356.241 147.534 355.305 151.758 353.432 155.403C351.559 159.027 348.891 161.857 345.43 163.893C341.989 165.908 337.897 166.916 333.153 166.916ZM333.214 156.838C335.372 156.838 337.174 156.227 338.62 155.006C340.065 153.764 341.155 152.074 341.888 149.936C342.641 147.798 343.018 145.365 343.018 142.637C343.018 139.909 342.641 137.476 341.888 135.338C341.155 133.2 340.065 131.51 338.62 130.268C337.174 129.027 335.372 128.406 333.214 128.406C331.036 128.406 329.203 129.027 327.717 130.268C326.251 131.51 325.142 133.2 324.388 135.338C323.655 137.476 323.289 139.909 323.289 142.637C323.289 145.365 323.655 147.798 324.388 149.936C325.142 152.074 326.251 153.764 327.717 155.006C329.203 156.227 331.036 156.838 333.214 156.838ZM395.109 119.091V129.322H375.624V166H362.981V119.091H395.109ZM413.018 166.886C410.025 166.886 407.358 166.366 405.017 165.328C402.675 164.269 400.823 162.712 399.458 160.656C398.115 158.579 397.443 155.993 397.443 152.898C397.443 150.292 397.921 148.104 398.878 146.332C399.835 144.561 401.138 143.136 402.787 142.057C404.436 140.978 406.31 140.163 408.407 139.614C410.524 139.064 412.743 138.677 415.064 138.453C417.792 138.168 419.991 137.903 421.661 137.659C423.33 137.394 424.542 137.008 425.295 136.499C426.048 135.99 426.425 135.236 426.425 134.239V134.055C426.425 132.121 425.814 130.625 424.593 129.566C423.391 128.507 421.681 127.978 419.462 127.978C417.121 127.978 415.258 128.497 413.873 129.536C412.489 130.554 411.573 131.836 411.125 133.384L399.092 132.406C399.703 129.556 400.904 127.092 402.696 125.016C404.487 122.919 406.798 121.31 409.628 120.19C412.479 119.05 415.777 118.48 419.523 118.48C422.129 118.48 424.623 118.786 427.005 119.396C429.408 120.007 431.535 120.954 433.388 122.237C435.261 123.519 436.737 125.168 437.816 127.184C438.895 129.179 439.435 131.571 439.435 134.361V166H427.097V159.495H426.73C425.977 160.961 424.969 162.254 423.707 163.374C422.445 164.473 420.928 165.338 419.157 165.969C417.385 166.58 415.339 166.886 413.018 166.886ZM416.744 157.907C418.658 157.907 420.348 157.53 421.814 156.777C423.279 156.003 424.43 154.965 425.265 153.662C426.099 152.359 426.517 150.883 426.517 149.234V144.256C426.109 144.52 425.55 144.765 424.837 144.989C424.145 145.192 423.361 145.386 422.485 145.569C421.61 145.732 420.734 145.884 419.859 146.027C418.984 146.149 418.19 146.261 417.477 146.363C415.95 146.587 414.616 146.943 413.476 147.432C412.336 147.92 411.45 148.582 410.819 149.417C410.188 150.231 409.873 151.249 409.873 152.471C409.873 154.242 410.514 155.596 411.797 156.533C413.1 157.449 414.749 157.907 416.744 157.907ZM469.186 166.916C464.361 166.916 460.208 165.939 456.726 163.984C453.265 162.009 450.598 159.22 448.725 155.616C446.851 151.992 445.915 147.707 445.915 142.759C445.915 137.934 446.851 133.699 448.725 130.055C450.598 126.41 453.234 123.57 456.634 121.534C460.055 119.498 464.066 118.48 468.667 118.48C471.762 118.48 474.643 118.979 477.31 119.977C479.997 120.954 482.339 122.43 484.334 124.405C486.35 126.38 487.917 128.864 489.037 131.857C490.157 134.829 490.717 138.311 490.717 142.301V145.874H451.107V137.812H478.47C478.47 135.939 478.063 134.279 477.249 132.834C476.434 131.388 475.304 130.258 473.859 129.444C472.434 128.609 470.774 128.192 468.881 128.192C466.906 128.192 465.155 128.65 463.628 129.566C462.121 130.462 460.941 131.673 460.085 133.2C459.23 134.707 458.793 136.387 458.772 138.239V145.905C458.772 148.226 459.2 150.231 460.055 151.921C460.93 153.611 462.162 154.914 463.75 155.83C465.338 156.746 467.222 157.205 469.4 157.205C470.846 157.205 472.169 157.001 473.37 156.594C474.571 156.187 475.6 155.576 476.455 154.761C477.31 153.947 477.961 152.949 478.409 151.768L490.442 152.562C489.831 155.454 488.579 157.978 486.686 160.136C484.812 162.274 482.39 163.944 479.417 165.145C476.465 166.326 473.055 166.916 469.186 166.916ZM525.217 151.616L537.921 119.091H547.816L529.523 166H520.88L503.015 119.091H512.879L525.217 151.616ZM509.917 119.091V166H497.487V119.091H509.917ZM541.159 166V119.091H553.436V166H541.159ZM100.477 233.354V243.585H75.9836V233.354H100.477ZM80.2592 215.091V262H67.8295V215.091H80.2592ZM108.631 215.091V262H96.2926V215.091H108.631ZM130.38 262.886C127.388 262.886 124.72 262.366 122.379 261.328C120.038 260.269 118.185 258.712 116.821 256.656C115.477 254.579 114.805 251.993 114.805 248.898C114.805 246.292 115.284 244.104 116.241 242.332C117.197 240.561 118.5 239.136 120.15 238.057C121.799 236.978 123.672 236.163 125.769 235.614C127.886 235.064 130.106 234.677 132.427 234.453C135.155 234.168 137.354 233.903 139.023 233.659C140.693 233.394 141.904 233.008 142.657 232.499C143.411 231.99 143.787 231.236 143.787 230.239V230.055C143.787 228.121 143.177 226.625 141.955 225.566C140.754 224.507 139.044 223.978 136.824 223.978C134.483 223.978 132.62 224.497 131.236 225.536C129.851 226.554 128.935 227.836 128.487 229.384L116.454 228.406C117.065 225.556 118.266 223.092 120.058 221.016C121.85 218.919 124.161 217.31 126.991 216.19C129.841 215.05 133.139 214.48 136.885 214.48C139.491 214.48 141.986 214.786 144.368 215.396C146.77 216.007 148.898 216.954 150.75 218.237C152.624 219.519 154.1 221.168 155.179 223.184C156.258 225.179 156.797 227.571 156.797 230.361V262H144.459V255.495H144.093C143.339 256.961 142.332 258.254 141.069 259.374C139.807 260.473 138.29 261.338 136.519 261.969C134.748 262.58 132.701 262.886 130.38 262.886ZM134.106 253.907C136.02 253.907 137.71 253.53 139.176 252.777C140.642 252.003 141.792 250.965 142.627 249.662C143.462 248.359 143.879 246.883 143.879 245.234V240.256C143.472 240.52 142.912 240.765 142.199 240.989C141.507 241.192 140.723 241.386 139.848 241.569C138.972 241.732 138.097 241.884 137.221 242.027C136.346 242.149 135.552 242.261 134.839 242.363C133.312 242.587 131.979 242.943 130.839 243.432C129.698 243.92 128.813 244.582 128.182 245.417C127.55 246.231 127.235 247.249 127.235 248.471C127.235 250.242 127.876 251.596 129.159 252.533C130.462 253.449 132.111 253.907 134.106 253.907ZM177.6 244.837L194.489 215.091H207.316V262H194.916V232.163L178.089 262H165.171V215.091H177.6V244.837ZM192.26 198.722H201.33C201.309 202.427 199.935 205.41 197.207 207.67C194.499 209.93 190.834 211.06 186.213 211.06C181.571 211.06 177.896 209.93 175.188 207.67C172.48 205.41 171.126 202.427 171.126 198.722H180.135C180.115 200.126 180.563 201.389 181.479 202.509C182.416 203.628 183.993 204.188 186.213 204.188C188.371 204.188 189.918 203.638 190.855 202.539C191.791 201.44 192.26 200.167 192.26 198.722ZM211.314 225.322V215.091H253.826V225.322H238.708V262H226.309V225.322H211.314ZM272.422 244.837L289.311 215.091H302.137V262H289.738V232.163L272.911 262H259.992V215.091H272.422V244.837ZM329.031 279.591V215.091H341.858V222.97H342.438C343.008 221.708 343.833 220.425 344.912 219.122C346.011 217.799 347.436 216.699 349.187 215.824C350.959 214.928 353.157 214.48 355.784 214.48C359.204 214.48 362.36 215.376 365.251 217.168C368.142 218.939 370.453 221.616 372.184 225.2C373.914 228.763 374.78 233.232 374.78 238.607C374.78 243.839 373.935 248.257 372.245 251.861C370.575 255.444 368.295 258.162 365.404 260.015C362.533 261.847 359.316 262.763 355.753 262.763C353.229 262.763 351.081 262.346 349.309 261.511C347.558 260.677 346.123 259.628 345.003 258.366C343.883 257.083 343.028 255.79 342.438 254.487H342.041V279.591H329.031ZM341.766 238.545C341.766 241.335 342.153 243.768 342.927 245.844C343.7 247.921 344.82 249.54 346.286 250.7C347.752 251.84 349.533 252.411 351.63 252.411C353.748 252.411 355.539 251.83 357.005 250.67C358.471 249.489 359.581 247.86 360.334 245.783C361.108 243.686 361.495 241.274 361.495 238.545C361.495 235.838 361.118 233.455 360.365 231.399C359.611 229.343 358.502 227.734 357.036 226.574C355.57 225.413 353.768 224.833 351.63 224.833C349.513 224.833 347.721 225.393 346.255 226.513C344.81 227.633 343.7 229.221 342.927 231.277C342.153 233.333 341.766 235.756 341.766 238.545ZM395.109 262.886C392.116 262.886 389.449 262.366 387.108 261.328C384.766 260.269 382.914 258.712 381.55 256.656C380.206 254.579 379.534 251.993 379.534 248.898C379.534 246.292 380.012 244.104 380.969 242.332C381.926 240.561 383.229 239.136 384.878 238.057C386.528 236.978 388.401 236.163 390.498 235.614C392.615 235.064 394.834 234.677 397.155 234.453C399.884 234.168 402.083 233.903 403.752 233.659C405.422 233.394 406.633 233.008 407.386 232.499C408.14 231.99 408.516 231.236 408.516 230.239V230.055C408.516 228.121 407.905 226.625 406.684 225.566C405.483 224.507 403.772 223.978 401.553 223.978C399.212 223.978 397.349 224.497 395.964 225.536C394.58 226.554 393.664 227.836 393.216 229.384L381.183 228.406C381.794 225.556 382.995 223.092 384.787 221.016C386.578 218.919 388.889 217.31 391.719 216.19C394.57 215.05 397.868 214.48 401.614 214.48C404.22 214.48 406.714 214.786 409.096 215.396C411.499 216.007 413.627 216.954 415.479 218.237C417.352 219.519 418.828 221.168 419.908 223.184C420.987 225.179 421.526 227.571 421.526 230.361V262H409.188V255.495H408.822C408.068 256.961 407.06 258.254 405.798 259.374C404.536 260.473 403.019 261.338 401.248 261.969C399.476 262.58 397.43 262.886 395.109 262.886ZM398.835 253.907C400.749 253.907 402.439 253.53 403.905 252.777C405.371 252.003 406.521 250.965 407.356 249.662C408.19 248.359 408.608 246.883 408.608 245.234V240.256C408.201 240.52 407.641 240.765 406.928 240.989C406.236 241.192 405.452 241.386 404.577 241.569C403.701 241.732 402.826 241.884 401.95 242.027C401.075 242.149 400.281 242.261 399.568 242.363C398.041 242.587 396.708 242.943 395.567 243.432C394.427 243.92 393.542 244.582 392.91 245.417C392.279 246.231 391.964 247.249 391.964 248.471C391.964 250.242 392.605 251.596 393.888 252.533C395.191 253.449 396.84 253.907 398.835 253.907ZM468.899 197.866L472.869 206.357C471.546 207.456 470.08 208.27 468.471 208.8C466.863 209.309 464.939 209.645 462.699 209.808C460.48 209.97 457.772 210.082 454.576 210.143C450.952 210.184 447.999 210.764 445.719 211.884C443.439 213.004 441.708 214.765 440.527 217.168C439.347 219.55 438.573 222.665 438.206 226.513H438.664C440.069 223.642 442.044 221.423 444.589 219.855C447.155 218.287 450.32 217.504 454.087 217.504C458.078 217.504 461.569 218.379 464.562 220.13C467.575 221.881 469.917 224.395 471.586 227.673C473.256 230.951 474.091 234.881 474.091 239.462C474.091 244.226 473.154 248.369 471.281 251.891C469.428 255.393 466.792 258.111 463.371 260.045C459.951 261.959 455.879 262.916 451.155 262.916C446.411 262.916 442.319 261.919 438.878 259.923C435.458 257.928 432.811 254.986 430.938 251.097C429.085 247.209 428.159 242.424 428.159 236.744V232.896C428.159 221.596 430.358 213.218 434.755 207.761C439.153 202.305 445.617 199.536 454.148 199.455C456.469 199.414 458.566 199.404 460.439 199.424C462.312 199.444 463.951 199.353 465.356 199.149C466.781 198.946 467.962 198.518 468.899 197.866ZM451.216 252.838C453.212 252.838 454.922 252.319 456.347 251.281C457.793 250.242 458.902 248.756 459.676 246.822C460.47 244.888 460.867 242.577 460.867 239.889C460.867 237.222 460.47 234.962 459.676 233.109C458.902 231.236 457.793 229.811 456.347 228.834C454.901 227.857 453.171 227.368 451.155 227.368C449.649 227.368 448.295 227.643 447.093 228.192C445.892 228.742 444.864 229.557 444.009 230.636C443.174 231.694 442.523 233.008 442.054 234.575C441.606 236.123 441.383 237.894 441.383 239.889C441.383 243.9 442.248 247.066 443.978 249.387C445.729 251.688 448.142 252.838 451.216 252.838ZM502.2 262.916C497.456 262.916 493.354 261.908 489.893 259.893C486.452 257.857 483.795 255.027 481.922 251.403C480.049 247.758 479.112 243.534 479.112 238.729C479.112 233.883 480.049 229.648 481.922 226.024C483.795 222.38 486.452 219.55 489.893 217.534C493.354 215.498 497.456 214.48 502.2 214.48C506.944 214.48 511.037 215.498 514.477 217.534C517.938 219.55 520.606 222.38 522.479 226.024C524.352 229.648 525.288 233.883 525.288 238.729C525.288 243.534 524.352 247.758 522.479 251.403C520.606 255.027 517.938 257.857 514.477 259.893C511.037 261.908 506.944 262.916 502.2 262.916ZM502.261 252.838C504.42 252.838 506.221 252.227 507.667 251.006C509.112 249.764 510.202 248.074 510.935 245.936C511.688 243.798 512.065 241.365 512.065 238.637C512.065 235.909 511.688 233.476 510.935 231.338C510.202 229.2 509.112 227.51 507.667 226.268C506.221 225.027 504.42 224.406 502.261 224.406C500.083 224.406 498.251 225.027 496.764 226.268C495.298 227.51 494.189 229.2 493.435 231.338C492.702 233.476 492.336 235.909 492.336 238.637C492.336 241.365 492.702 243.798 493.435 245.936C494.189 248.074 495.298 249.764 496.764 251.006C498.251 252.227 500.083 252.838 502.261 252.838ZM527.485 225.322V215.091H569.996V225.322H554.879V262H542.48V225.322H527.485ZM584.195 279.591C582.546 279.591 580.999 279.459 579.553 279.194C578.128 278.95 576.947 278.634 576.011 278.247L578.942 268.536C580.469 269.004 581.844 269.258 583.065 269.299C584.307 269.34 585.376 269.055 586.272 268.444C587.188 267.833 587.931 266.795 588.501 265.329L589.265 263.344L572.438 215.091H586.119L595.831 249.54H596.32L606.123 215.091H619.896L601.664 267.07C600.789 269.594 599.598 271.793 598.091 273.666C596.605 275.56 594.721 277.015 592.441 278.033C590.161 279.072 587.412 279.591 584.195 279.591Z" fill="#2E3241"/>
<path d="M578.205 274.91C578.999 274.013 579.93 273.026 580.273 272.716C581.089 271.979 583.27 272.315 583.527 273.218C583.637 273.606 584.286 273.981 584.97 274.052C587.172 274.282 587.788 275.41 587.413 278.526C587.109 281.049 587.176 281.319 587.97 280.775C588.77 280.227 588.776 280.284 588.023 281.282C587.555 281.9 587.002 282.278 586.792 282.121C586.583 281.963 586.405 282.334 586.395 282.944C586.376 284.271 586.831 284.394 587.875 283.344C588.299 282.918 589.033 282.656 589.506 282.763C590.535 282.995 594.62 281.486 594.678 280.854C594.7 280.61 595.025 280.436 595.399 280.468C595.775 280.5 596.783 280.237 597.641 279.883C598.631 279.475 599.306 279.45 599.488 279.814C599.668 280.173 600.138 280.135 600.743 279.715C602.328 278.611 606.667 277.554 606.268 278.368C606.035 278.842 606.325 279.012 607.213 278.924C608.022 278.844 608.875 279.253 609.526 280.033C610.37 281.045 610.437 281.518 609.891 282.639C609.524 283.393 609.342 284.246 609.487 284.536C609.632 284.826 609.52 285.043 609.237 285.017C608.954 284.992 608.547 285.511 608.332 286.172C608.117 286.832 607.549 288.132 607.07 289.06C606.138 290.866 606.36 291.744 607.591 291.122C608.009 290.911 608.698 290.717 609.123 290.692C609.549 290.666 610.12 290.347 610.394 289.982C610.667 289.618 611.05 289.51 611.244 289.743C611.438 289.976 611.939 289.932 612.356 289.645C612.773 289.358 613.798 289.109 614.633 289.093C615.469 289.077 616.269 288.799 616.41 288.475C616.552 288.151 617.024 287.918 617.459 287.957C617.894 287.996 618.891 287.687 619.673 287.269C620.456 286.852 621.079 286.699 621.059 286.93C621.038 287.16 621.485 287.003 622.052 286.579C623.1 285.796 629.08 283.933 629.383 284.296C629.694 284.668 628.699 286.223 628.18 286.176C627.894 286.15 627.835 285.898 628.047 285.615C628.259 285.332 628.173 285.076 627.856 285.048C627.538 285.019 627.246 285.356 627.206 285.797C627.159 286.319 626.83 286.448 626.258 286.167C625.754 285.919 625.5 285.973 625.661 286.294C625.814 286.6 625.655 287.184 625.308 287.592C624.792 288.196 624.748 288.162 625.068 287.407C625.284 286.898 625.223 286.459 624.933 286.433C624.643 286.407 624.388 286.577 624.367 286.811C624.318 287.354 620.908 288.318 620.395 287.933C620.183 287.774 619.837 287.998 619.624 288.43C619.128 289.44 619.907 289.497 622.085 288.608C623.039 288.219 623.921 288.02 624.044 288.167C624.166 288.314 623.243 288.83 621.993 289.314C620.35 289.95 619.57 290.014 619.178 289.545C618.788 289.077 618.474 289.11 618.05 289.663C617.727 290.085 617.469 290.184 617.478 289.882C617.487 289.581 617.068 290.038 616.546 290.897C616.024 291.757 615.755 292.042 615.947 291.53C616.139 291.019 616.059 290.579 615.769 290.552C615.478 290.526 615.215 290.781 615.185 291.118C615.15 291.507 614.55 291.56 613.545 291.263C612.673 291.005 611.792 291.019 611.586 291.292C611.381 291.566 611.629 291.828 612.139 291.874C613.086 291.959 614.38 293.562 614.292 294.541C614.264 294.841 613.94 294.601 613.57 294.009C613.199 293.416 612.62 293.069 612.283 293.238C611.945 293.407 611.69 293.312 611.715 293.026C611.793 292.169 610.268 291.701 608.77 292.121C607.374 292.512 606.737 293.585 607.842 293.684C608.159 293.713 608.304 293.507 608.164 293.226C607.823 292.545 609.834 292.237 610.646 292.846C611.39 293.404 609.537 294.387 608.002 294.248C607.246 294.18 607.189 294.322 607.686 295.044C608.019 295.528 608.198 295.935 608.084 295.95C607.971 295.964 607.135 296.029 606.228 296.093C605.321 296.157 604.365 296.483 604.102 296.818C603.782 297.225 603.55 297.01 603.399 296.169C603.275 295.478 602.957 294.892 602.692 294.869C602.427 294.845 602.299 294.524 602.408 294.156C602.517 293.788 602.205 293.516 601.714 293.55C600.987 293.602 600.883 293.125 601.15 290.952C601.401 288.916 601.26 288.124 600.553 287.589C599.817 287.032 599.614 287.056 599.555 287.711C599.488 288.448 599.128 288.602 598.047 288.357C597.858 288.315 597.473 288.587 597.191 288.962C596.909 289.338 596.359 289.642 595.969 289.64C595.579 289.636 594.827 289.633 594.298 289.631C593.769 289.629 593.301 290.024 593.257 290.507C593.197 291.175 592.788 291.294 591.564 291C590.558 290.758 589.929 290.852 589.893 291.248C589.816 292.1 587.214 292.974 586.216 292.484C585.778 292.269 585.399 292.324 585.374 292.606C585.348 292.889 584.96 293.086 584.51 293.045C584.06 293.005 583.718 292.684 583.75 292.332C583.782 291.981 583.219 291.358 582.501 290.949C581.427 290.338 581.181 290.349 581.121 291.011C581.081 291.454 581.416 291.85 581.866 291.891C582.316 291.931 582.662 292.21 582.635 292.51C582.566 293.273 580.202 292.978 579.483 292.115C578.64 291.105 578.809 290.519 579.922 290.6C580.754 290.66 580.744 290.578 579.842 289.962C578.407 288.981 578.403 288.974 578.866 288.358C579.151 287.976 579.584 288.008 580.273 288.461C581.076 288.989 581.221 288.949 581.024 288.255C580.847 287.633 579.97 287.323 577.84 287.131C574.535 286.833 574.015 286.883 574.157 287.486C574.212 287.718 573.629 287.85 572.862 287.781C572.095 287.712 571.587 287.896 571.734 288.191C572.345 289.412 568.275 289.871 567.082 288.715C566.49 288.143 566.398 288.242 566.567 289.274C566.727 290.25 566.541 290.508 565.733 290.435C565.162 290.384 564.716 290.104 564.742 289.813C564.768 289.523 564.449 289.382 564.034 289.5C563.153 289.75 562.378 288.769 561.785 286.653C561.438 285.417 561.5 285.215 562.13 285.524C562.551 285.731 562.919 285.657 562.945 285.361C563.04 284.312 560.296 284.016 558.973 284.932C557.727 285.795 557.72 285.83 558.77 285.95C559.665 286.053 559.705 286.154 559 286.516C558.364 286.841 557.965 286.598 557.467 285.581L556.794 284.207L556.076 285.342C555.597 286.098 554.94 286.391 554.105 286.22C552.776 285.948 551.114 286.757 551.484 287.497C551.837 288.204 548.808 288.321 545.781 287.717C543.891 287.339 542.691 287.363 542.07 287.79C541.32 288.306 541.084 288.286 540.78 287.678C540.518 287.155 540.282 287.103 539.981 287.504C539.34 288.359 537.915 288.051 537.173 286.897C536.559 285.943 536.534 285.947 536.79 286.958C536.992 287.753 536.865 287.944 536.315 287.678C534.101 286.608 533.177 286.374 533.132 286.873C533.104 287.178 531.696 287.286 529.95 287.116C528.227 286.95 525.33 286.847 523.513 286.89C521.695 286.931 519.104 286.87 517.755 286.753C516.405 286.636 514.951 286.778 514.524 287.07C514.053 287.39 513.621 287.385 513.426 287.056C512.919 286.199 508.965 286.004 509.205 286.847C509.446 287.701 504.754 287.432 504.321 286.569C504.17 286.266 503.674 286.124 503.218 286.253C502.753 286.385 502.418 286.179 502.454 285.781C502.49 285.383 501.933 285.6 501.177 286.277C499.99 287.341 499.825 287.367 499.737 286.496C499.655 285.678 499.488 285.618 498.737 286.135C497.778 286.794 495.496 286.891 489.748 286.515C487.795 286.388 486.043 286.454 485.856 286.663C485.669 286.872 483.004 286.944 479.934 286.823C475.086 286.632 474.362 286.49 474.43 285.74C474.501 284.954 474.423 284.946 473.574 285.655C472.573 286.49 471.602 286.619 471.667 285.909C471.729 285.216 468.289 285.185 466.751 285.864C465.693 286.331 465.308 286.319 465.189 285.814C465.073 285.323 464.676 285.333 463.702 285.853C462.702 286.386 461.947 286.397 460.652 285.895C458.781 285.172 457.744 285.369 458.237 286.357C458.437 286.756 458.306 286.799 457.876 286.476C456.957 285.787 454.609 285.348 454.895 285.918C455.252 286.633 453.064 286.811 452.483 286.115C452.124 285.685 451.733 285.655 451.206 286.018C450.789 286.305 449.631 286.409 448.633 286.249C447.607 286.084 446.683 286.235 446.506 286.594C446.297 287.02 445.72 287.05 444.768 286.683C443.741 286.289 442.734 286.401 441.165 287.084C439.343 287.878 438.921 287.9 438.581 287.222C438.24 286.539 437.922 286.503 436.573 286.993C435.691 287.313 433.978 287.605 432.765 287.641C431.553 287.678 430.176 287.868 429.704 288.064C428.79 288.445 423.891 288.831 423.21 288.576C422.986 288.492 422.888 288.198 422.993 287.923C423.11 287.615 422.795 287.579 422.177 287.83C421.623 288.054 420.896 288.11 420.56 287.953C420.224 287.796 419.765 287.912 419.542 288.21C418.941 289.011 418.099 288.782 418.183 287.842C418.224 287.392 417.889 286.991 417.439 286.951C416.99 286.91 416.589 287.245 416.548 287.695C416.481 288.442 415.361 288.713 414.02 288.307C412.173 287.749 409.009 287.485 408.2 287.823C407.569 288.086 407.175 287.983 407.034 287.519C406.9 287.075 406.777 287.14 406.699 287.695C406.604 288.372 406.08 288.5 404.407 288.253C403.214 288.077 402.22 288.128 402.199 288.365C402.158 288.818 399.648 288.276 398.784 287.627C398.486 287.404 398.434 287.555 398.656 287.999C398.938 288.563 398.679 288.646 397.598 288.337C396.811 288.111 396.016 288.128 395.832 288.373C395.649 288.618 395.042 288.777 394.485 288.727C393.929 288.677 393.367 288.877 393.238 289.173C393.085 289.523 392.128 289.463 390.477 288.998C389.088 288.606 387.802 288.411 387.619 288.564C387.435 288.717 386.95 288.861 386.541 288.884C386.132 288.907 385.28 289.039 384.648 289.179C383.87 289.351 383.357 289.116 383.061 288.455C382.667 287.572 382.579 287.588 382.15 288.61C381.768 289.52 381.34 289.669 379.955 289.371C379.009 289.167 376.351 289.326 374.048 289.724C371.745 290.122 368.749 290.472 367.39 290.502C366.031 290.533 364.445 290.758 363.867 291.004C363.288 291.25 362.473 291.283 362.054 291.077C361.354 290.733 356.103 291.816 353.915 292.755C353.401 292.976 352.474 292.974 351.855 292.751C351.236 292.528 350.706 292.602 350.678 292.915C350.649 293.228 349.2 293.531 347.457 293.587C345.714 293.644 344.151 293.84 343.983 294.022C343.303 294.764 339.259 295.241 338.665 294.65C338.253 294.24 337.951 294.281 337.706 294.779C337.51 295.18 336.532 295.595 335.534 295.703C334.536 295.81 333.305 296.197 332.799 296.562C331.137 297.759 328.651 298.025 326.383 297.247C323.725 296.336 323.683 296.292 324.617 295.353C325.094 294.874 325.163 294.564 324.801 294.532C324.483 294.503 324.048 294.711 323.836 294.994C323.191 295.854 322.408 295.484 322.041 294.145C321.823 293.355 321.922 292.759 322.303 292.562C322.719 292.347 322.712 291.955 322.282 291.33C321.936 290.825 321.449 290.514 321.201 290.637C320.363 291.057 320.305 289.312 321.125 288.341C321.78 287.565 321.823 287.18 321.343 286.382C321.015 285.837 320.572 285.535 320.36 285.713C320.147 285.89 320 285.728 320.034 285.351C320.118 284.427 323.203 281.741 323.728 282.135C323.958 282.307 324.441 281.841 324.802 281.1C325.36 279.954 325.796 279.783 327.711 279.956C329.426 280.11 329.909 279.969 329.737 279.363C329.554 278.718 329.833 278.691 331.199 279.22C333.274 280.023 333.156 280.017 333.219 279.321C333.247 279.004 333.012 278.873 332.695 279.031C332.379 279.19 332.165 278.82 332.22 278.21C332.307 277.243 332.493 277.186 333.68 277.764C334.428 278.128 335.262 278.315 335.532 278.18C335.803 278.045 335.943 278.426 335.843 279.028C335.638 280.253 335.005 280.427 334.679 279.348C334.525 278.839 334.437 278.821 334.364 279.287C334.222 280.189 335.027 280.683 336.128 280.371C336.639 280.226 336.959 279.759 336.838 279.334C336.718 278.909 336.88 278.584 337.198 278.613C337.516 278.642 337.861 279.165 337.963 279.775C338.065 280.386 338.387 280.766 338.677 280.621C338.968 280.475 339.975 280.209 340.913 280.029C342.373 279.749 342.515 279.808 341.89 280.436C341.303 281.026 341.333 281.184 342.046 281.249C342.532 281.293 342.972 280.899 343.024 280.375C343.096 279.645 343.211 279.602 343.514 280.191C343.828 280.801 344 280.775 344.35 280.062C344.687 279.375 345.178 279.279 346.44 279.651C347.779 280.047 348.157 279.945 348.459 279.106C348.767 278.252 348.994 278.198 349.774 278.789C350.293 279.182 350.578 279.688 350.408 279.915C349.987 280.477 350.795 280.489 351.849 279.935C352.426 279.632 352.487 279.457 352.033 279.41C350.945 279.299 351.332 278.395 352.556 278.19C353.171 278.088 353.528 278.197 353.35 278.435C353.172 278.672 353.247 279.032 353.518 279.235C353.788 279.438 354.288 279.195 354.63 278.697C355.215 277.841 355.306 277.853 356.292 278.921C356.865 279.542 357.358 279.789 357.386 279.469C357.415 279.149 358.435 278.81 359.653 278.715C360.87 278.621 361.887 278.32 361.911 278.046C361.936 277.773 362.584 277.606 363.351 277.675C364.142 277.746 364.579 278.024 364.36 278.315C363.748 279.132 364.955 279.007 365.985 278.148C366.501 277.717 366.894 277.638 366.864 277.972C366.825 278.411 367.134 278.438 368.002 278.069C368.657 277.791 369.312 277.706 369.458 277.88C369.781 278.267 371.029 277.274 371.563 276.207C371.785 275.763 371.925 276.133 371.887 277.071C371.83 278.497 371.896 278.575 372.388 277.666C372.7 277.089 372.942 276.952 372.926 277.361C372.906 277.889 373.343 278.044 374.428 277.893C375.563 277.735 375.735 277.803 375.091 278.159C374.346 278.571 374.358 278.652 375.177 278.733C375.701 278.785 376.153 278.566 376.182 278.246C376.212 277.912 376.686 277.853 377.294 278.108C377.876 278.353 378.372 278.345 378.395 278.09C378.418 277.836 379.197 277.417 380.127 277.158C381.058 276.9 381.798 276.913 381.774 277.186C381.673 278.298 383.205 277.715 383.919 276.37C384.34 275.577 384.521 275.427 384.322 276.038C384.007 277.007 384.172 277.136 385.625 277.054C386.703 276.995 387.268 277.197 387.229 277.629C387.196 277.996 387.704 277.761 388.358 277.106C389.432 276.029 389.539 276.015 389.47 276.955C389.402 277.893 389.518 277.876 390.65 276.787L391.906 275.579L392.833 276.961C393.343 277.72 393.804 278.195 393.858 278.015C393.912 277.835 394.04 277.448 394.142 277.155C394.244 276.862 394.373 276.453 394.43 276.247C394.486 276.04 394.8 276.192 395.128 276.584C395.842 277.441 397.121 277.635 397.188 276.897C397.214 276.607 396.855 276.478 396.389 276.609C395.924 276.741 395.563 276.63 395.587 276.362C395.611 276.094 396.125 275.882 396.729 275.891C397.356 275.9 397.796 276.243 397.756 276.691C397.717 277.122 397.927 277.533 398.223 277.606C399.755 277.978 400.12 277.902 400.183 277.196C400.222 276.771 400.63 276.356 401.091 276.274C401.836 276.142 401.832 276.181 401.059 276.63C399.884 277.311 400.749 277.363 402.078 276.69C402.902 276.274 403.499 276.379 404.771 277.164C405.67 277.718 406.551 277.979 406.727 277.743C406.905 277.507 406.752 277.162 406.389 276.976C405.974 276.764 406.067 276.653 406.642 276.677C407.144 276.699 407.63 277.032 407.722 277.418C407.848 277.942 408.1 277.984 408.715 277.583C409.168 277.287 410.148 277.162 410.89 277.304C411.633 277.447 413.086 277.262 414.119 276.893C415.528 276.391 416.14 276.393 416.564 276.901C417.363 277.858 417.989 277.809 418.082 276.783C418.133 276.215 418.448 276.048 418.978 276.308C419.489 276.559 419.677 276.473 419.479 276.078C419.26 275.64 419.713 275.619 420.968 276.011C421.96 276.32 422.835 276.798 422.911 277.073C422.988 277.347 423.277 277.458 423.552 277.321C423.828 277.183 423.939 276.668 423.8 276.177C423.584 275.414 423.714 275.394 424.696 276.038C425.595 276.629 426.041 276.659 426.744 276.176C427.487 275.664 427.723 275.739 428.116 276.618C428.564 277.622 428.651 277.614 429.739 276.464C430.371 275.796 430.79 275.58 430.67 275.985C430.551 276.39 430.75 276.861 431.112 277.032C431.474 277.203 431.795 277.078 431.824 276.753C431.853 276.426 432.866 276.252 434.094 276.362C435.313 276.472 436.838 276.338 437.484 276.064C438.15 275.781 438.493 275.785 438.278 276.073C438.069 276.352 438.356 276.746 438.916 276.947C439.66 277.216 439.87 277.086 439.694 276.466C439.495 275.766 439.642 275.742 440.539 276.331C441.252 276.801 441.756 276.868 442.01 276.529C442.223 276.244 443.35 276.098 444.514 276.203C445.678 276.308 446.804 276.162 447.016 275.879C447.564 275.149 449.395 275.411 449.595 276.249C449.72 276.772 449.974 276.814 450.588 276.415C451.538 275.796 454.509 275.21 455.295 275.485C456.878 276.04 459.885 276.395 459.917 276.031C459.938 275.799 460.687 275.727 461.581 275.87C462.474 276.014 463.226 275.902 463.252 275.621C463.278 275.334 463.766 275.419 464.369 275.815C465.152 276.33 465.651 276.373 466.229 275.975C466.665 275.675 467.133 275.661 467.274 275.944C467.415 276.226 468.342 276.476 469.334 276.499C470.326 276.523 471.466 276.85 471.868 277.227C472.428 277.752 472.517 277.744 472.251 277.194C472.025 276.728 472.252 276.493 472.893 276.525C478.646 276.813 485.405 276.472 485.891 275.869C486.211 275.472 486.332 275.481 486.301 275.896C486.276 276.222 487.114 276.566 488.164 276.66C489.534 276.784 490.099 276.589 490.166 275.97C490.241 275.287 490.366 275.337 490.773 276.208C491.27 277.276 491.308 277.28 492.116 276.361C492.573 275.841 492.92 275.717 492.887 276.084C492.843 276.577 493.118 276.629 493.935 276.282C494.609 275.996 495.149 276.022 495.312 276.349C495.559 276.843 497.608 276.908 499.314 276.475C499.703 276.376 500.612 276.582 501.334 276.934C502.154 277.334 502.662 277.381 502.691 277.058C502.717 276.776 503.052 276.698 503.437 276.887C503.821 277.075 504.796 277.044 505.604 276.818C506.412 276.591 507.134 276.608 507.207 276.855C507.281 277.102 508.777 277.145 510.533 276.952C512.288 276.758 513.707 276.795 513.685 277.033C513.664 277.271 514.28 277.288 515.056 277.071C516.081 276.784 516.461 276.859 516.448 277.348C516.435 277.86 516.511 277.862 516.769 277.359C516.955 276.996 517.318 276.858 517.577 277.053C517.836 277.247 518.066 277.207 518.088 276.965C518.11 276.722 519.172 276.6 520.448 276.693C523.332 276.903 525.919 276.735 526.835 276.277C527.223 276.082 527.891 276.357 528.34 276.896C528.911 277.579 529.333 277.709 529.78 277.335C530.128 277.045 530.962 276.857 531.634 276.918C532.306 276.978 533.014 276.817 533.208 276.559C533.603 276.032 534.58 276.177 535.542 276.906C535.896 277.174 536.485 277.243 536.851 277.06C537.218 276.877 538.359 276.835 539.388 276.967C540.418 277.099 542.032 276.892 542.976 276.507C543.92 276.122 544.505 276.057 544.275 276.364C543.705 277.124 544.255 277.109 545.781 276.321C547.114 275.635 548.213 275.715 550.698 276.678C551.778 277.097 552.466 277.037 553.234 276.458C553.815 276.021 554.805 275.71 555.436 275.767C556.104 275.827 556.768 275.428 557.027 274.812C557.272 274.229 557.715 273.774 558.012 273.801C558.31 273.828 558.36 274.106 558.125 274.42C557.829 274.816 558.105 274.891 559.033 274.666C560.468 274.318 561.616 274.406 564.149 275.059C565.036 275.287 565.946 275.519 566.173 275.574C566.4 275.629 566.916 276.566 567.32 277.656C568.015 279.532 568.109 279.592 569.063 278.775C569.618 278.3 569.982 277.719 569.873 277.482C569.764 277.245 569.935 277.075 570.253 277.104C570.57 277.132 570.796 277.526 570.756 277.978C570.695 278.651 570.881 278.699 571.78 278.245C572.424 277.919 572.833 277.241 572.769 276.606C572.709 276.011 572.8 275.691 572.971 275.896C573.142 276.101 573.619 276.036 574.031 275.753C574.546 275.398 575.089 275.441 575.771 275.889C576.593 276.429 577.009 276.262 578.205 274.91Z" fill="#2E3241"/>
<path d="M553.361 275.855C553.044 276.013 552.809 275.883 552.837 275.565C552.866 275.248 553.135 275.01 553.435 275.037C553.734 275.064 553.97 275.194 553.958 275.327C553.946 275.459 553.677 275.697 553.361 275.855Z" fill="#2E3241"/>
<path d="M633.504 283.359C633.186 283.33 632.949 283.062 632.976 282.762C633.003 282.462 633.133 282.226 633.265 282.238C633.398 282.25 633.635 282.519 633.793 282.836C633.952 283.152 633.821 283.388 633.504 283.359Z" fill="#2E3241"/>
<path d="M630.804 283.627C630.055 283.527 630.095 283.437 631.018 283.135C632.534 282.64 632.553 282.641 632.109 283.233C631.896 283.516 631.309 283.693 630.804 283.627Z" fill="#2E3241"/>
<path d="M552.069 276.345C551.871 276.51 551.399 276.487 551.02 276.294C550.601 276.081 550.742 275.963 551.379 275.994C551.956 276.023 552.266 276.18 552.069 276.345Z" fill="#2E3241"/>
<path d="M539.865 276.561C539.733 276.549 539.495 276.28 539.337 275.964C539.179 275.647 539.309 275.412 539.626 275.44C539.944 275.469 540.182 275.738 540.155 276.037C540.128 276.337 539.998 276.573 539.865 276.561Z" fill="#2E3241"/>
<path d="M456.671 275.102C456.354 275.073 456.268 274.818 456.48 274.535C456.692 274.252 456.974 274.03 457.107 274.042C457.239 274.054 457.325 274.309 457.298 274.608C457.271 274.908 456.989 275.13 456.671 275.102Z" fill="#2E3241"/>
<path d="M432.712 275.688C432.245 275.646 432.036 275.38 432.248 275.097C432.461 274.814 432.865 274.603 433.147 274.628C433.43 274.654 433.638 274.92 433.611 275.22C433.584 275.519 433.179 275.73 432.712 275.688Z" fill="#2E3241"/>
<path d="M421.607 275.777C420.793 275.697 420.78 275.616 421.52 275.228C422.608 274.656 422.67 274.661 422.61 275.326C422.583 275.626 422.131 275.829 421.607 275.777Z" fill="#2E3241"/>
<path d="M614.781 292.872C614.331 292.651 613.973 292.374 613.983 292.256C614.023 291.814 615.04 292.156 615.313 292.704C615.476 293.029 615.249 293.101 614.781 292.872Z" fill="#2E3241"/>
<path d="M416.172 275.109C415.784 275.227 415.17 275.172 414.809 274.987C414.448 274.802 414.766 274.706 415.515 274.773C416.265 274.841 416.561 274.992 416.172 275.109Z" fill="#2E3241"/>
<path d="M409.845 276.644C409.565 276.434 409.356 276.032 409.382 275.749C409.453 274.966 409.828 275.174 410.105 276.151C410.247 276.652 410.136 276.863 409.845 276.644Z" fill="#2E3241"/>
<path d="M609.347 294.908C609.37 294.659 609.828 294.381 610.365 294.291C610.902 294.201 611.405 294.105 611.483 294.077C611.562 294.049 611.606 294.243 611.582 294.507C611.558 294.772 611.036 295.073 610.422 295.176C609.809 295.278 609.325 295.158 609.347 294.908Z" fill="#2E3241"/>
<path d="M385.66 276.39C385.343 276.361 385.256 276.106 385.469 275.823C385.681 275.54 385.963 275.318 386.095 275.33C386.228 275.342 386.314 275.597 386.287 275.897C386.259 276.197 385.977 276.418 385.66 276.39Z" fill="#2E3241"/>
<path d="M367.923 276.771C367.726 276.935 367.253 276.912 366.874 276.719C366.455 276.506 366.596 276.389 367.233 276.42C367.81 276.448 368.12 276.606 367.923 276.771Z" fill="#2E3241"/>
<path d="M344.291 278.429C342.734 278.585 343.555 277.77 345.196 277.528C345.809 277.438 346.423 277.346 346.561 277.323C346.699 277.3 346.538 277.511 346.204 277.789C345.869 278.069 345.008 278.356 344.291 278.429Z" fill="#2E3241"/>
<path d="M347.535 279.286C347.264 279.083 347.213 278.569 347.422 278.144C347.956 277.056 348.247 277.216 348.128 278.532C348.072 279.15 347.806 279.489 347.535 279.286Z" fill="#2E3241"/>
<path d="M328.328 279.462C328.066 279.438 327.906 278.81 327.973 278.066C328.041 277.322 328.298 276.865 328.546 277.051C328.793 277.237 328.953 277.864 328.901 278.447C328.848 279.029 328.591 279.485 328.328 279.462Z" fill="#2E3241"/>
<path d="M324.179 278.391C324.016 278.195 324.102 277.741 324.371 277.382C324.765 276.857 324.893 276.869 325.028 277.439C325.22 278.254 324.623 278.923 324.179 278.391Z" fill="#2E3241"/>
<path d="M326.389 278.507C325.996 278.037 325.688 277.512 325.703 277.34C325.784 276.446 327.132 277.322 327.118 278.259C327.104 279.219 327.009 279.251 326.389 278.507Z" fill="#2E3241"/>
<path d="M339.82 279.248C339.224 279.149 338.753 278.89 338.773 278.672C338.792 278.455 339.296 278.358 339.891 278.458C340.487 278.557 340.958 278.816 340.938 279.034C340.919 279.251 340.416 279.347 339.82 279.248Z" fill="#2E3241"/>
<path d="M321.448 281.864C321.132 282.022 320.896 281.891 320.925 281.574C320.953 281.257 321.222 281.019 321.522 281.046C321.822 281.073 322.057 281.203 322.045 281.336C322.033 281.468 321.765 281.705 321.448 281.864Z" fill="#2E3241"/>
<path d="M668.641 186.756C667.814 186.03 665.332 187.522 664.972 187.742C655.995 199.042 646.998 210.334 638 221.626C648.002 211.215 658.004 200.802 668 190.396C668.189 190.015 669.448 187.475 668.641 186.756ZM665.563 190.45C664.99 189.946 665.016 188.982 665.622 188.287C666.233 187.586 667.183 187.43 667.756 187.932C668.314 188.422 668.288 189.387 667.676 190.089C667.07 190.784 666.12 190.94 665.563 190.45Z" fill="#2E3241"/>
<path d="M652.933 161.742C652.43 167.714 652.984 173.961 655.823 179.336C658.168 183.776 662.007 187.39 666.802 188.971C667.376 189.16 667.622 188.253 667.051 188.065C662.354 186.517 658.66 182.886 656.448 178.509C653.844 173.356 653.39 167.417 653.869 161.744C653.92 161.14 652.984 161.144 652.933 161.742Z" fill="#2E3241"/>
<path d="M667.814 189.571C670.423 189.146 672.353 186.796 671.919 184.105C671.667 182.542 669.824 179.507 667.949 181.129C667.189 181.787 667.045 183.007 666.915 183.93C666.705 185.428 666.659 186.947 666.798 188.454C667.061 191.298 667.941 194.139 669.637 196.461C671.514 199.033 674.206 200.539 677.168 201.557C680.848 202.823 684.693 203.629 688.502 204.394C696.303 205.96 704.305 207.199 711.592 210.565C718.161 213.598 724.079 218.536 726.692 225.48C727.899 228.689 728.803 233.272 727.099 236.463C725.299 239.834 720.641 239.78 717.353 239.671C709.381 239.407 701.769 236.629 694.381 233.846C690.926 232.544 687.472 231.069 683.922 230.053C681.766 229.437 678.813 229.614 678.706 232.497C678.592 235.564 681.73 238.654 683.711 240.647C686.316 243.266 689.269 245.502 691.991 247.991C693.412 249.29 695.235 250.783 696.2 252.474C697.233 254.285 695.768 254.961 694.348 255.538C693.332 255.952 692.298 256.329 691.268 256.707C686.771 258.361 682.202 259.811 677.579 261.076C676.998 261.235 677.244 262.141 677.827 261.981C681.678 260.928 685.495 259.748 689.262 258.423C690.958 257.827 692.645 257.208 694.318 256.553C695.303 256.166 696.465 255.776 697.118 254.881C698.716 252.69 695.431 250.016 694.049 248.65C691.875 246.501 689.477 244.601 687.181 242.589C684.726 240.439 682.244 238.112 680.564 235.276C679.494 233.471 679.062 230.539 682.043 230.641C683.792 230.7 685.647 231.609 687.266 232.19C694.127 234.654 700.86 237.573 707.968 239.27C711.402 240.091 714.925 240.617 718.461 240.63C721.085 240.64 724.102 240.506 726.279 238.841C730.748 235.423 728.821 227.582 726.791 223.34C720.703 210.625 706.024 206.869 693.404 204.396C689.145 203.562 684.869 202.776 680.679 201.631C676.707 200.546 672.624 199.201 670.197 195.63C668.247 192.762 667.513 189.197 667.678 185.765C667.718 184.926 667.788 184.061 667.971 183.239C668.175 182.326 668.082 182.285 669.105 182.195C670.18 182.1 670.408 182.497 670.769 183.444C671.708 185.911 670.06 188.257 667.566 188.662C666.973 188.762 667.224 189.666 667.814 189.571Z" fill="#2E3241"/>
<path d="M705.721 167.245C709.687 160.156 707.175 151.184 700.109 147.205C693.044 143.226 684.102 145.747 680.136 152.835C676.17 159.924 678.682 168.896 685.747 172.875C692.812 176.854 701.755 174.333 705.721 167.245Z" fill="#2E3241" stroke="#2E3241" stroke-width="0.7" stroke-miterlimit="10" stroke-linecap="round" stroke-linejoin="round"/>
<path d="M694.112 170.928C700.092 170.267 704.405 164.869 703.746 158.87C703.088 152.871 697.706 148.544 691.727 149.205C685.748 149.866 681.435 155.264 682.093 161.263C682.752 167.262 688.133 171.589 694.112 170.928Z" stroke="#2E3241" stroke-width="0.7" stroke-miterlimit="10" stroke-linecap="round" stroke-linejoin="round"/>
<path d="M702.265 160.054C702.265 165.227 698.085 169.42 692.929 169.42C687.773 169.42 683.593 165.227 683.593 160.054C683.593 154.881 687.773 150.688 692.929 150.688C698.085 150.688 702.265 154.881 702.265 160.054Z" stroke="#2E3241" stroke-width="0.7" stroke-miterlimit="10" stroke-linecap="round" stroke-linejoin="round"/>
<path d="M690.766 156.945C690.766 157.622 690.219 158.171 689.544 158.171C688.869 158.171 688.321 157.622 688.321 156.945C688.321 156.268 688.868 155.719 689.544 155.719C690.219 155.719 690.766 156.268 690.766 156.945Z" fill="#FAF7F4" stroke="#2E3241" stroke-width="0.7" stroke-miterlimit="10" stroke-linecap="round" stroke-linejoin="round"/>
<path d="M697.536 156.945C697.536 157.622 696.989 158.171 696.313 158.171C695.638 158.171 695.091 157.622 695.091 156.945C695.091 156.268 695.638 155.719 696.313 155.719C696.989 155.719 697.536 156.268 697.536 156.945Z" fill="#FAF7F4" stroke="#2E3241" stroke-width="0.7" stroke-miterlimit="10" stroke-linecap="round" stroke-linejoin="round"/>
<path d="M690.766 163.167C690.766 163.844 690.219 164.393 689.544 164.393C688.869 164.393 688.321 163.844 688.321 163.167C688.321 162.489 688.868 161.94 689.544 161.94C690.219 161.94 690.766 162.489 690.766 163.167Z" fill="#FAF7F4" stroke="#2E3241" stroke-width="0.7" stroke-miterlimit="10" stroke-linecap="round" stroke-linejoin="round"/>
<path d="M697.536 163.167C697.536 163.844 696.989 164.393 696.313 164.393C695.638 164.393 695.091 163.844 695.091 163.167C695.091 162.489 695.638 161.94 696.313 161.94C696.989 161.94 697.536 162.489 697.536 163.167Z" fill="#FAF7F4" stroke="#2E3241" stroke-width="0.7" stroke-miterlimit="10" stroke-linecap="round" stroke-linejoin="round"/>
<path d="M1.06367 127.723C1.97931 131.594 12.4402 132.392 24.413 129.522C36.4053 126.647 45.3867 121.188 44.471 117.317C43.84 114.65 38.6284 113.441 31.5154 113.896L33.0904 120.554C33.3178 121.517 28.9217 123.397 23.2841 124.749C17.6665 126.096 12.8992 126.412 12.6718 125.449L11.0968 118.791C4.54416 121.612 0.432622 125.056 1.06367 127.723Z" fill="#E8BE2B" stroke="#58433E" stroke-width="1.2" stroke-miterlimit="10" stroke-linecap="round" stroke-linejoin="round"/>
<path d="M9.83114 113.437C10.0592 114.399 14.8259 114.083 20.4435 112.736C26.0811 111.384 30.4778 109.504 30.2497 108.542C30.027 107.599 25.2603 107.915 19.6227 109.267C14.0051 110.614 9.60783 112.494 9.83114 113.437Z" fill="#F8ECDA" stroke="#58433E" stroke-width="1.2" stroke-miterlimit="10" stroke-linecap="round" stroke-linejoin="round"/>
<path d="M9.83081 113.437L12.672 125.45C12.9 126.413 17.6667 126.097 23.2843 124.75C28.9219 123.398 33.3186 121.518 33.0906 120.555L30.2494 108.542C30.4774 109.505 26.0807 111.385 20.4431 112.736C14.825 114.084 10.0582 114.4 9.83081 113.437Z" fill="#F8ECDA" stroke="#58433E" stroke-width="1.2" stroke-miterlimit="10" stroke-linecap="round" stroke-linejoin="round"/>
<path d="M1.06348 127.723L12.5284 176.197C13.1594 178.865 18.371 180.073 25.4834 179.618C28.6351 179.414 32.1922 178.879 35.8777 177.995C39.5833 177.107 42.9784 175.976 45.9026 174.723C52.4559 171.902 56.5668 168.458 55.9364 165.791L44.4714 117.317C45.3871 121.188 36.4057 126.647 24.4134 129.522C12.4406 132.392 1.97911 131.594 1.06348 127.723Z" fill="#E8BE2B" stroke="#58433E" stroke-width="1.2" stroke-miterlimit="10" stroke-linecap="round" stroke-linejoin="round"/>
<path d="M25.4841 179.619L27.1015 186.458C27.3242 187.4 32.0916 187.084 37.7091 185.737C43.3467 184.386 47.7434 182.506 47.5201 181.563L45.9027 174.724C42.9785 175.976 39.5834 177.108 35.8778 177.996C32.1929 178.88 28.6358 179.415 25.4841 179.619Z" fill="#F8ECDA" stroke="#58433E" stroke-width="1.2" stroke-miterlimit="10" stroke-linecap="round" stroke-linejoin="round"/>
<path d="M46.1271 124.317C46.1271 124.317 36.1806 140.595 4.82031 143.604" stroke="#58433E" stroke-width="1.2" stroke-miterlimit="10" stroke-linecap="round" stroke-linejoin="round"/>
<path d="M48.7919 135.588C48.7919 135.588 35.0508 150.245 8.04541 153.473C8.04541 153.473 25.4991 174.165 55.9361 165.793" stroke="#58433E" stroke-width="1.2" stroke-miterlimit="10" stroke-linecap="round" stroke-linejoin="round"/>
<path d="M24.5493 149.752C24.5493 149.752 38.1537 157.978 53.3548 154.875" stroke="#58433E" stroke-width="1.2" stroke-miterlimit="10" stroke-linecap="round" stroke-linejoin="round"/>
<path d="M633.704 38.0215L638.731 52.3145C639.25 53.7883 640.123 55.1107 641.273 56.1639L643.3 58.0203L616.02 67.6972L616.393 64.9247C616.593 63.4331 616.438 61.9151 615.939 60.4961L610.246 44.3114C608.634 39.7295 603.629 37.327 599.066 38.9455L588.341 42.7498C584.287 44.1881 581.39 47.8011 580.862 52.0876L580.674 53.6439C580.485 55.1268 579.491 56.3781 578.085 56.8768L572.766 58.7634L560.512 23.925L565.831 22.0384C567.237 21.5397 568.793 21.8864 569.868 22.9209L570.988 24.0132C574.086 27.0012 578.589 27.9891 582.644 26.551L598.654 20.8717C600.3 20.2878 601.315 18.1548 600.734 16.502L623.401 7.80762C623.717 8.70514 624.293 10.398 625.034 10.9356C625.764 11.477 626.661 11.7987 627.606 11.8332L629.793 11.9188L635.949 29.4202C634.733 30.492 633.894 31.8727 633.515 33.3736C633.11 34.8711 633.165 36.4891 633.704 38.0215Z" fill="#2E3241" stroke="#2E3241" stroke-width="1.8271" stroke-miterlimit="10" stroke-linecap="round" stroke-linejoin="round"/>
<path d="M611.886 2.37623C612.125 3.05656 610.605 4.21464 608.495 4.96307C606.381 5.71277 604.474 5.77051 604.235 5.09017C604.07 4.62111 604.748 3.92068 605.879 3.28539L606.291 4.45615C606.35 4.62534 607.206 4.47645 608.2 4.12391C609.19 3.77264 609.949 3.34861 609.89 3.17943L609.478 2.00868C610.755 1.7898 611.721 1.90716 611.886 2.37623Z" fill="#E8BE2B" stroke="#2E3241" stroke-width="1.8271" stroke-miterlimit="10" stroke-linecap="round" stroke-linejoin="round"/>
<path d="M609.147 1.06773C609.206 1.23691 608.447 1.66094 607.457 2.01221C606.463 2.36453 605.607 2.51364 605.548 2.34445C605.489 2.17865 606.249 1.75463 607.242 1.40209C608.232 1.05082 609.088 0.901928 609.147 1.06773Z" fill="#E5D4C6" stroke="#2E3241" stroke-width="1.8271" stroke-miterlimit="10" stroke-linecap="round" stroke-linejoin="round"/>
<path d="M609.147 1.06738L609.89 3.17945C609.949 3.34863 609.19 3.77265 608.2 4.12392C607.206 4.47625 606.35 4.62536 606.291 4.45617L605.548 2.34411C605.607 2.51329 606.463 2.3644 607.457 2.01186C608.447 1.66059 609.206 1.23657 609.147 1.06738Z" fill="#E5D4C6" stroke="#2E3241" stroke-width="1.8271" stroke-miterlimit="10" stroke-linecap="round" stroke-linejoin="round"/>
<path d="M614.881 11.1868C614.907 11.0849 614.915 10.987 614.884 10.8994L611.886 2.37695C612.125 3.0575 610.605 4.21536 608.495 4.96379C606.381 5.71349 604.474 5.77123 604.235 5.09089L607.233 13.6134C607.264 13.7009 607.331 13.7722 607.415 13.8356L614.881 11.1868Z" fill="#E8BE2B" stroke="#2E3241" stroke-width="1.8271" stroke-miterlimit="10" stroke-linecap="round" stroke-linejoin="round"/>
<path d="M605.275 8.04596C605.275 8.04596 609.281 8.51652 612.926 5.33203" stroke="#2E3241" stroke-width="1.8271" stroke-miterlimit="10" stroke-linecap="round" stroke-linejoin="round"/>
<path d="M606.142 10.5118C606.142 10.5118 610.148 10.9823 613.793 7.79785" stroke="#2E3241" stroke-width="1.8271" stroke-miterlimit="10" stroke-linecap="round" stroke-linejoin="round"/>
<path d="M560.512 23.9248L572.766 58.7632L571.382 59.2542C570.51 59.5636 569.536 59.0963 569.229 58.2207L558.095 26.5675C557.787 25.6919 558.256 24.7253 559.128 24.4159L560.512 23.9248Z" fill="#8387A3" stroke="#2E3241" stroke-width="1.8271" stroke-miterlimit="10" stroke-linecap="round" stroke-linejoin="round"/>
<path d="M639.615 31.4037C638.155 31.9217 636.553 31.1529 636.037 29.6867L629.058 9.84576C628.543 8.37956 629.308 6.77124 630.768 6.25332C632.228 5.73541 633.83 6.50415 634.345 7.97035L641.324 27.8113C641.84 29.2775 641.075 30.8858 639.615 31.4037Z" fill="#8387A3" stroke="#2E3241" stroke-width="1.8271" stroke-miterlimit="10" stroke-linecap="round" stroke-linejoin="round"/>
<path d="M622.954 24.4002C624.277 28.1597 622.314 32.284 618.57 33.6119C614.827 34.94 610.72 32.9688 609.397 29.209C608.075 25.4495 610.038 21.3252 613.781 19.9971C617.525 18.6692 621.632 20.6404 622.954 24.4002Z" fill="#E8BE2B" stroke="#2E3241" stroke-width="1.8271" stroke-miterlimit="10" stroke-linecap="round" stroke-linejoin="round"/>
<path d="M618.257 31.2834C620.723 30.12 621.784 27.1689 620.625 24.692C619.467 22.215 616.528 21.1501 614.062 22.3135C611.595 23.4768 610.535 26.4279 611.693 28.9049C612.852 31.3819 615.79 32.4468 618.257 31.2834Z" fill="#E5D4C6" stroke="#2E3241" stroke-width="1.8271" stroke-miterlimit="10" stroke-linecap="round" stroke-linejoin="round"/>
<path d="M562.525 18.9559L561.041 19.4824L562.369 23.2566L563.853 22.7301L562.525 18.9559Z" fill="#E8BE2B" stroke="#2E3241" stroke-width="1.8271" stroke-miterlimit="10" stroke-linecap="round" stroke-linejoin="round"/>
<path d="M604.782 6.64453C604.782 6.64453 599.104 10.5559 592.14 12.706C585.176 14.8561 567.259 14.9338 562.522 18.9673" stroke="#2E3241" stroke-width="1.8271" stroke-miterlimit="10" stroke-linecap="round" stroke-linejoin="round"/>
<path d="M615.227 24.1094L617.158 29.5998" stroke="#2E3241" stroke-width="1.8271" stroke-miterlimit="10" stroke-linecap="round" stroke-linejoin="round"/>
<path d="M627.212 43.4599C628.11 46.0133 626.777 48.8142 624.234 49.7159C621.692 50.6179 618.903 49.2792 618.004 46.7258C617.106 44.1726 618.439 41.3717 620.982 40.4698C623.525 39.5678 626.314 40.9067 627.212 43.4599Z" fill="#E8BE2B" stroke="#2E3241" stroke-width="1.8271" stroke-miterlimit="10" stroke-linecap="round" stroke-linejoin="round"/>
<path d="M625.768 43.9719C626.384 45.7244 625.469 47.6468 623.724 48.2658C621.979 48.8848 620.065 47.9659 619.449 46.2135C618.832 44.4612 619.747 42.5386 621.492 41.9196C623.237 41.3006 625.151 42.2193 625.768 43.9719Z" fill="#E5D4C6" stroke="#2E3241" stroke-width="1.8271" stroke-miterlimit="10" stroke-linecap="round" stroke-linejoin="round"/>
<path d="M621.964 43.2617L623.276 46.9908" stroke="#2E3241" stroke-width="1.8271" stroke-miterlimit="10" stroke-linecap="round" stroke-linejoin="round"/>
<path d="M652.254 62.2547L574.22 89.9353C573.637 90.1419 572.999 89.8353 572.793 89.2505L571.22 84.7794C571.015 84.1946 571.32 83.5532 571.902 83.3466L649.936 55.666C650.519 55.4594 651.158 55.766 651.363 56.3508L652.936 60.8219C653.141 61.4067 652.836 62.0481 652.254 62.2547Z" fill="#8387A3" stroke="#2E3241" stroke-width="1.8271" stroke-miterlimit="10" stroke-linecap="round" stroke-linejoin="round"/>
<path d="M571.642 85.9772L651.785 57.5488" stroke="#2E3241" stroke-width="1.8271" stroke-miterlimit="10" stroke-linecap="round" stroke-linejoin="round"/>
<path d="M576.386 57.4689L573.882 58.3574L577.747 69.3437L580.251 68.4552L576.386 57.4689Z" fill="#E8BE2B" stroke="#2E3241" stroke-width="1.8271" stroke-miterlimit="10" stroke-linecap="round" stroke-linejoin="round"/>
<path d="M579.125 69.2842L582.499 78.8787" stroke="#2E3241" stroke-width="1.8271" stroke-miterlimit="10" stroke-linecap="round" stroke-linejoin="round"/>
</svg>
